<?xml version="1.0" encoding="UTF-8"?>
<svg width="215px" height="170px" viewBox="0 0 215 170" version="1.1" xmlns="http://www.w3.org/2000/svg" xmlns:xlink="http://www.w3.org/1999/xlink">
    <title>:: icon@2x</title>
    <defs>
        <rect id="path-1" x="0" y="0" width="203" height="158" rx="6"></rect>
        <filter x="-4.7%" y="-5.4%" width="109.4%" height="112.0%" filterUnits="objectBoundingBox" id="filter-2">
            <feOffset dx="0" dy="1" in="SourceAlpha" result="shadowOffsetOuter1"></feOffset>
            <feGaussianBlur stdDeviation="3" in="shadowOffsetOuter1" result="shadowBlurOuter1"></feGaussianBlur>
            <feColorMatrix values="0 0 0 0 0   0 0 0 0 0   0 0 0 0 0  0 0 0 0.052075366 0" type="matrix" in="shadowBlurOuter1"></feColorMatrix>
        </filter>
        <rect id="path-3" x="0" y="0" width="69" height="18" rx="2"></rect>
        <filter x="-11.6%" y="-33.3%" width="123.2%" height="188.9%" filterUnits="objectBoundingBox" id="filter-4">
            <feMorphology radius="1" operator="dilate" in="SourceAlpha" result="shadowSpreadOuter1"></feMorphology>
            <feOffset dx="0" dy="2" in="shadowSpreadOuter1" result="shadowOffsetOuter1"></feOffset>
            <feGaussianBlur stdDeviation="2" in="shadowOffsetOuter1" result="shadowBlurOuter1"></feGaussianBlur>
            <feComposite in="shadowBlurOuter1" in2="SourceAlpha" operator="out" result="shadowBlurOuter1"></feComposite>
            <feColorMatrix values="0 0 0 0 0   0 0 0 0 0   0 0 0 0 0  0 0 0 0.08 0" type="matrix" in="shadowBlurOuter1"></feColorMatrix>
        </filter>
        <rect id="path-5" x="0" y="0" width="69" height="18" rx="2"></rect>
        <filter x="-11.6%" y="-33.3%" width="123.2%" height="188.9%" filterUnits="objectBoundingBox" id="filter-6">
            <feMorphology radius="1" operator="dilate" in="SourceAlpha" result="shadowSpreadOuter1"></feMorphology>
            <feOffset dx="0" dy="2" in="shadowSpreadOuter1" result="shadowOffsetOuter1"></feOffset>
            <feGaussianBlur stdDeviation="2" in="shadowOffsetOuter1" result="shadowBlurOuter1"></feGaussianBlur>
            <feComposite in="shadowBlurOuter1" in2="SourceAlpha" operator="out" result="shadowBlurOuter1"></feComposite>
            <feColorMatrix values="0 0 0 0 0   0 0 0 0 0   0 0 0 0 0  0 0 0 0.08 0" type="matrix" in="shadowBlurOuter1"></feColorMatrix>
        </filter>
    </defs>
    <g id="Design" stroke="none" stroke-width="1" fill="none" fill-rule="evenodd">
        <g id="1.0-UI-Components" transform="translate(-371.000000, -1839.000000)">
            <g id="::-modal" transform="translate(320.000000, 1773.000000)">
                <g id="::-icon" transform="translate(57.000000, 71.000000)">
                    <g id="background">
                        <use fill="black" fill-opacity="1" filter="url(#filter-2)" xlink:href="#path-1"></use>
                        <use fill="#FFFFFF" fill-rule="evenodd" xlink:href="#path-1"></use>
                    </g>
                    <g id="::-button" transform="translate(107.000000, 113.000000)">
                        <g id="Rectangle">
                            <use fill="black" fill-opacity="1" filter="url(#filter-4)" xlink:href="#path-3"></use>
                            <rect stroke-opacity="0.499533913" stroke="#FFFFFF" stroke-width="1" fill="#E8E8E8" fill-rule="evenodd" x="-0.5" y="-0.5" width="70" height="19" rx="2"></rect>
                        </g>
                        <rect id="Rectangle" fill="#FFFFFF" x="14" y="7" width="41" height="4" rx="2"></rect>
                    </g>
                    <g id="::-button" transform="translate(27.000000, 113.000000)">
                        <g id="Rectangle">
                            <use fill="black" fill-opacity="1" filter="url(#filter-6)" xlink:href="#path-5"></use>
                            <rect stroke-opacity="0.495288769" stroke="#FFFFFF" stroke-width="1" fill="#4574C7" fill-rule="evenodd" x="-0.5" y="-0.5" width="70" height="19" rx="2"></rect>
                        </g>
                        <rect id="Rectangle" fill="#FFFFFF" x="14" y="7" width="41" height="4" rx="2"></rect>
                    </g>
                    <rect id="splitter" fill="#E8E8E8" x="27" y="92" width="148" height="1"></rect>
                    <rect id="text" fill="#E8E8E8" x="51.5263158" y="67" width="100" height="6" rx="2"></rect>
                    <rect id="text" fill="#E8E8E8" x="39" y="53" width="126" height="6" rx="2"></rect>
                    <rect id="text" fill="#4574C7" x="72" y="39" width="59" height="6" rx="2"></rect>
                    <g id="Group" transform="translate(173.000000, 16.000000)" fill="#000000" fill-rule="nonzero">
                        <g id="Icons/Plus-Circle" transform="translate(7.000000, 7.000000) rotate(-45.000000) translate(-7.000000, -7.000000) ">
                            <path d="M7,0 C3.13425,0 0,3.13425 0,7 C0,10.86575 3.13425,14 7,14 C10.86575,14 14,10.86575 14,7 C14,3.13425 10.86575,0 7,0 Z M10.5,7.58333333 L7.58333333,7.58333333 L7.58333333,10.5 L6.41666667,10.5 L6.41666667,7.58333333 L3.5,7.58333333 L3.5,6.41666667 L6.41666667,6.41666667 L6.41666667,3.5 L7.58333333,3.5 L7.58333333,6.41666667 L10.5,6.41666667 L10.5,7.58333333 Z" id="Shape"></path>
                        </g>
                    </g>
                </g>
            </g>
        </g>
    </g>
</svg>