<svg width="175" height="139" viewBox="0 0 175 139" fill="none" xmlns="http://www.w3.org/2000/svg">
<circle cx="10" cy="128" r="9" stroke="#D8D8D8" stroke-width="2"/>
<path d="M88 120H42C40.8954 120 40 120.895 40 122V124C40 125.105 40.8954 126 42 126H88C89.1046 126 90 125.105 90 124V122C90 120.895 89.1046 120 88 120Z" fill="#D8D8D8"/>
<path d="M173 131H42C40.8954 131 40 131.895 40 133V135C40 136.105 40.8954 137 42 137H173C174.105 137 175 136.105 175 135V133C175 131.895 174.105 131 173 131Z" fill="#D8D8D8"/>
<circle cx="10" cy="49" r="9" stroke="#4574C7" stroke-width="2"/>
<circle cx="10" cy="49" r="4" fill="#4574C7"/>
<path d="M97 41H42C40.8954 41 40 41.8954 40 43V45C40 46.1046 40.8954 47 42 47H97C98.1046 47 99 46.1046 99 45V43C99 41.8954 98.1046 41 97 41Z" fill="#4574C7"/>
<path d="M142 52H42C40.8954 52 40 52.8954 40 54V56C40 57.1046 40.8954 58 42 58H142C143.105 58 144 57.1046 144 56V54C144 52.8954 143.105 52 142 52Z" fill="#4574C7"/>
<circle cx="10" cy="88" r="9" stroke="#D8D8D8" stroke-width="2"/>
<path d="M88 80H42C40.8954 80 40 80.8954 40 82V84C40 85.1046 40.8954 86 42 86H88C89.1046 86 90 85.1046 90 84V82C90 80.8954 89.1046 80 88 80Z" fill="#D8D8D8"/>
<path d="M173 91H42C40.8954 91 40 91.8954 40 93V95C40 96.1046 40.8954 97 42 97H173C174.105 97 175 96.1046 175 95V93C175 91.8954 174.105 91 173 91Z" fill="#D8D8D8"/>
<circle cx="10" cy="10" r="9" stroke="#D8D8D8" stroke-width="2"/>
<path d="M88 2H42C40.8954 2 40 2.89543 40 4V6C40 7.10457 40.8954 8 42 8H88C89.1046 8 90 7.10457 90 6V4C90 2.89543 89.1046 2 88 2Z" fill="#D8D8D8"/>
<path d="M173 13H42C40.8954 13 40 13.8954 40 15V17C40 18.1046 40.8954 19 42 19H173C174.105 19 175 18.1046 175 17V15C175 13.8954 174.105 13 173 13Z" fill="#D8D8D8"/>
</svg>
