<svg width="1em" height="1em" viewBox="0 0 24 16" xmlns="http://www.w3.org/2000/svg"><path d="M16.603 0c.704 0 1.51.302 2.113.805l4.226 3.522c.805.704 1.208 1.51 1.007 2.515 0 1.208-.302 2.315-.805 3.422l-1.007 1.912c-.301.503-.805.805-1.308.805-.2 1.71-1.61 3.018-3.42 3.018-1.712 0-3.22-1.308-3.422-3.018H9.86c-.201 1.71-1.71 3.018-3.421 3.018-1.71 0-3.22-1.308-3.421-3.018h-.1A2.92 2.92 0 010 10.062c0-.301.1-.704.302-1.106C.1 8.855 0 8.754 0 8.553c0-.302.201-.503.503-.503h.201l1.007-2.013H.503c-.302 0-.503-.2-.503-.503 0-.302.201-.503.503-.503h1.71L3.22 3.02H.503C.201 3.019 0 2.817 0 2.516c0-.302.201-.504.503-.504h3.22l.201-.402A2.9 2.9 0 016.541 0zM6.541 10.062a2.491 2.491 0 00-2.516 2.516 2.491 2.491 0 002.516 2.516 2.491 2.491 0 002.515-2.516 2.491 2.491 0 00-2.515-2.516zm11.068 0a2.491 2.491 0 00-2.515 2.516 2.491 2.491 0 002.515 2.516 2.491 2.491 0 002.516-2.516 2.491 2.491 0 00-2.516-2.516zm-.805-9.056H6.742c-.705 0-1.409.403-1.71 1.006h2.716c.302 0 .503.202.503.504 0 .301-.201.503-.503.503h-3.22L3.522 5.03h2.214c.301 0 .503.201.503.503s-.202.503-.503.503H3.019L2.012 8.05h1.711c.302 0 .503.201.503.503s-.201.503-.503.503H1.51l-.1.201c-.1.302-.202.604-.202.906a1.91 1.91 0 001.912 1.912h.101c.201-1.71 1.71-3.019 3.421-3.019 1.71 0 3.22 1.308 3.421 3.019h4.126c.201-1.71 1.61-3.019 3.421-3.019 1.711 0 3.12 1.308 3.422 3.019.2-.1.301-.201.402-.302l1.006-1.912c.503-.805.705-2.012.906-3.019 0-.704-.302-1.408-.805-1.81l-4.226-3.523a2.711 2.711 0 00-1.51-.503zm-.402 1.006c.201 0 .402 0 .503.101l5.031 4.025c.201.201.302.403.201.604a.553.553 0 01-.503.302h-6.037c-.201 0-.302-.1-.403-.202-.1-.1-.1-.301-.1-.402L16.1 2.415c0-.201.1-.302.302-.403zm.503 1.41l-.704 2.615h4.025l-3.321-2.616z" fill="currentColor" fill-rule="evenodd"/></svg>
