<svg width="472" height="601" viewBox="0 0 472 601" fill="none" xmlns="http://www.w3.org/2000/svg">
<g clip-path="url(#clip0_801_995)">
<path d="M0 226.55L46.36 267.7L49.45 226.55H0Z" fill="#F46D38"/>
<path d="M447.91 600.3H64.3201C51.2201 600.3 40.5601 589.64 40.5601 576.54V23.76C40.5601 10.66 51.2201 0 64.3201 0H382.51L471.66 89.15V576.54C471.66 589.64 461 600.3 447.9 600.3H447.91Z" fill="#F5F5F5"/>
<path d="M447.91 600.3H64.3201C51.2201 600.3 40.5601 589.64 40.5601 576.54V23.76C40.5601 10.66 51.2201 0 64.3201 0H382.51L471.66 89.15V576.54C471.66 589.64 461 600.3 447.9 600.3H447.91ZM64.3201 11.59C57.6101 11.59 52.1501 17.05 52.1501 23.76V576.54C52.1501 583.25 57.6101 588.71 64.3201 588.71H447.91C454.62 588.71 460.08 583.25 460.08 576.54V93.95L377.71 11.59H64.3201Z" fill="#C9C9C9"/>
<path d="M381.27 66.0599C381.27 80.7799 393.2 92.71 407.92 92.71H467.02L381.27 6.94995V66.05V66.0599Z" fill="#C9C9C9"/>
<path d="M338.39 84.6H0V226.56H338.39V84.6Z" fill="#FEA352"/>
<path d="M119.535 142.515C119.302 140.166 118.302 138.341 116.536 137.04C114.769 135.74 112.371 135.089 109.343 135.089C107.285 135.089 105.548 135.381 104.131 135.963C102.714 136.526 101.626 137.312 100.869 138.322C100.132 139.331 99.7628 140.477 99.7628 141.758C99.724 142.826 99.9472 143.757 100.433 144.553C100.937 145.349 101.626 146.038 102.5 146.621C103.374 147.184 104.383 147.679 105.528 148.106C106.674 148.513 107.897 148.863 109.197 149.154L114.555 150.435C117.157 151.018 119.545 151.794 121.719 152.765C123.893 153.736 125.776 154.929 127.368 156.347C128.96 157.764 130.192 159.433 131.066 161.355C131.959 163.277 132.415 165.48 132.435 167.965C132.415 171.615 131.483 174.779 129.639 177.458C127.814 180.118 125.174 182.185 121.719 183.661C118.283 185.116 114.138 185.844 109.285 185.844C104.47 185.844 100.277 185.107 96.7053 183.631C93.1527 182.156 90.3767 179.972 88.3771 177.08C86.397 174.168 85.3584 170.567 85.2614 166.276H97.4624C97.5982 168.276 98.1709 169.945 99.1804 171.285C100.209 172.605 101.578 173.605 103.286 174.284C105.014 174.944 106.965 175.274 109.139 175.274C111.275 175.274 113.129 174.964 114.701 174.342C116.293 173.721 117.526 172.857 118.399 171.751C119.273 170.644 119.71 169.373 119.71 167.936C119.71 166.597 119.312 165.471 118.516 164.558C117.739 163.646 116.594 162.869 115.08 162.229C113.585 161.588 111.75 161.006 109.576 160.482L103.082 158.851C98.0545 157.628 94.0845 155.716 91.1726 153.114C88.2607 150.513 86.8144 147.009 86.8338 142.602C86.8144 138.991 87.7753 135.837 89.7166 133.138C91.6773 130.44 94.366 128.334 97.7827 126.82C101.199 125.305 105.082 124.548 109.43 124.548C113.857 124.548 117.72 125.305 121.02 126.82C124.339 128.334 126.921 130.44 128.766 133.138C130.61 135.837 131.561 138.962 131.619 142.515H119.535ZM151.69 125.364L166.104 170.673H166.657L181.1 125.364H195.078L174.519 185H158.271L137.683 125.364H151.69ZM238.436 144.641C238.029 143.223 237.456 141.971 236.718 140.884C235.981 139.778 235.078 138.846 234.01 138.089C232.962 137.312 231.758 136.72 230.399 136.312C229.06 135.905 227.575 135.701 225.944 135.701C222.896 135.701 220.217 136.458 217.907 137.972C215.616 139.487 213.83 141.69 212.549 144.582C211.268 147.455 210.627 150.969 210.627 155.124C210.627 159.278 211.258 162.811 212.52 165.723C213.782 168.635 215.568 170.858 217.878 172.391C220.188 173.906 222.916 174.663 226.061 174.663C228.914 174.663 231.351 174.158 233.369 173.148C235.408 172.12 236.961 170.673 238.029 168.81C239.116 166.946 239.659 164.743 239.659 162.2L242.222 162.578H226.847V153.085H251.802V160.598C251.802 165.839 250.695 170.343 248.482 174.109C246.269 177.856 243.222 180.749 239.339 182.787C235.456 184.806 231.011 185.815 226.002 185.815C220.411 185.815 215.5 184.583 211.268 182.117C207.036 179.632 203.736 176.109 201.367 171.547C199.018 166.965 197.844 161.53 197.844 155.24C197.844 150.406 198.543 146.097 199.941 142.311C201.358 138.506 203.338 135.284 205.881 132.643C208.424 130.003 211.384 127.994 214.762 126.616C218.14 125.237 221.799 124.548 225.74 124.548C229.118 124.548 232.263 125.043 235.175 126.033C238.087 127.004 240.669 128.382 242.921 130.168C245.192 131.954 247.046 134.08 248.482 136.545C249.919 138.991 250.841 141.69 251.249 144.641H238.436Z" fill="#F5F5F5"/>
<path d="M239.89 353.09V323.32H268.96V353.09H239.89ZM259.04 341.89V334.53H249.81V341.89H259.04Z" fill="#C9C9C9"/>
<path d="M242.37 326.13V350.3H266.48V326.13H242.37ZM261.52 344.69H247.33V331.73H261.52V344.69Z" fill="#C9C9C9"/>
<path d="M139.07 486.07V456.3H167.25V486.07H139.07ZM157.33 474.87V467.51H148.99V474.87H157.33Z" fill="#C9C9C9"/>
<path d="M141.55 459.11V483.28H164.77V459.11H141.55ZM159.81 477.67H146.51V464.71H159.81V477.67Z" fill="#C9C9C9"/>
<path d="M344.28 486.07V456.3H373.16V486.07H344.28ZM363.23 474.87V467.51H354.2V474.87H363.23Z" fill="#C9C9C9"/>
<path d="M346.76 459.11V483.28H370.68V459.11H346.76ZM365.71 477.67H351.72V464.71H365.71V477.67Z" fill="#C9C9C9"/>
<path d="M351.21 486.07L351.46 483.02C351.61 481.2 351.73 479.35 351.83 477.51L351.97 474.88H364.28L364.2 477.76C364.15 479.69 364.02 481.63 363.87 483.53L363.67 486.08H351.22L351.21 486.07ZM146.69 486.07L146.49 483.52C146.34 481.62 146.21 479.68 146.16 477.75L146.08 474.87H158.39L158.53 477.5C158.63 479.35 158.75 481.19 158.9 483.01L159.15 486.06H146.7L146.69 486.07ZM351.87 467.51L351.76 464.83C351.69 463.01 351.57 461.19 351.4 459.4C346.26 400.32 304.88 355.78 255.15 355.78C205.42 355.78 164.07 400.32 158.93 459.38C158.76 461.19 158.64 463.01 158.57 464.83L158.46 467.5H146.03L146.15 464.57C146.23 462.65 146.35 460.73 146.51 458.84C151.42 398.77 191.6 349.92 242.05 342.69C244.77 342.31 247.67 342.04 250.66 341.89C252.15 341.81 253.66 341.78 255.16 341.78C256.66 341.78 258.17 341.81 259.68 341.9C262.02 342.01 264.41 342.21 266.74 342.5C318.02 348.97 358.85 397.91 363.84 458.85C363.99 460.74 364.12 462.66 364.2 464.58L364.32 467.51H351.88H351.87Z" fill="#C9C9C9"/>
<path d="M156.06 477.67H148.64C148.69 479.55 148.81 481.42 148.96 483.27H156.43C156.28 481.42 156.16 479.55 156.06 477.67ZM361.37 459.11C356.48 399.35 316.62 351.61 266.48 345.28C264.2 345 261.89 344.8 259.56 344.69C258.1 344.61 256.63 344.58 255.17 344.58C253.71 344.58 252.24 344.61 250.78 344.69C247.95 344.83 245.15 345.08 242.37 345.47C192.95 352.55 153.83 399.93 148.99 459.1C148.84 460.95 148.72 462.82 148.64 464.7H156.11C156.19 462.82 156.31 460.95 156.48 459.1C161.66 399.54 203.96 352.97 255.17 352.97C306.38 352.97 348.7 399.54 353.88 459.1C354.05 460.95 354.18 462.82 354.25 464.7H361.72C361.64 462.82 361.52 460.95 361.37 459.1V459.11ZM354.3 477.67C354.2 479.55 354.08 481.42 353.93 483.27H361.4C361.55 481.42 361.67 479.55 361.72 477.67H354.3Z" fill="#C9C9C9"/>
<path d="M342.45 333.74H259.04V342.14H342.45V333.74Z" fill="#C9C9C9"/>
<path d="M339.96 336.54H261.52V339.34H339.96V336.54Z" fill="#C9C9C9"/>
<path d="M343 347.97C347.716 347.97 351.54 343.484 351.54 337.95C351.54 332.416 347.716 327.93 343 327.93C338.283 327.93 334.46 332.416 334.46 337.95C334.46 343.484 338.283 347.97 343 347.97Z" fill="#C9C9C9"/>
<path d="M343 345.17C346.347 345.17 349.06 341.938 349.06 337.95C349.06 333.963 346.347 330.73 343 330.73C339.653 330.73 336.94 333.963 336.94 337.95C336.94 341.938 339.653 345.17 343 345.17Z" fill="#C9C9C9"/>
<path d="M249.81 333.74H167.92V342.14H249.81V333.74Z" fill="#C9C9C9"/>
<path d="M247.33 336.54H170.4V339.34H247.33V336.54Z" fill="#C9C9C9"/>
<path d="M167.36 347.97C172.076 347.97 175.9 343.484 175.9 337.95C175.9 332.416 172.076 327.93 167.36 327.93C162.643 327.93 158.82 332.416 158.82 337.95C158.82 343.484 162.643 347.97 167.36 347.97Z" fill="#C9C9C9"/>
<path d="M167.36 345.17C170.707 345.17 173.42 341.938 173.42 337.95C173.42 333.963 170.707 330.73 167.36 330.73C164.013 330.73 161.3 333.963 161.3 337.95C161.3 341.938 164.013 345.17 167.36 345.17Z" fill="#C9C9C9"/>
</g>
<defs>
<clipPath id="clip0_801_995">
<rect width="471.66" height="600.3" fill="white"/>
</clipPath>
</defs>
</svg>
