<svg width="472" height="601" viewBox="0 0 472 601" fill="none" xmlns="http://www.w3.org/2000/svg">
<g clip-path="url(#clip0_801_1033)">
<path d="M447.91 600.3H64.3201C51.2201 600.3 40.5601 589.64 40.5601 576.54V23.76C40.5601 10.66 51.2201 0 64.3201 0H382.51L471.66 89.15V576.54C471.66 589.64 461 600.3 447.9 600.3H447.91Z" fill="#F5F5F5"/>
<path d="M0 226.55L46.35 267.7L49.45 226.55H0Z" fill="#E27829"/>
<path d="M447.91 600.3H64.3201C51.2201 600.3 40.5601 589.64 40.5601 576.54V23.76C40.5601 10.66 51.2201 0 64.3201 0H382.51L471.66 89.15V576.54C471.66 589.64 461 600.3 447.9 600.3H447.91ZM64.3201 11.59C57.6101 11.59 52.1501 17.05 52.1501 23.76V576.54C52.1501 583.25 57.6101 588.71 64.3201 588.71H447.91C454.62 588.71 460.08 583.25 460.08 576.54V93.95L377.71 11.59H64.3201Z" fill="#C9C9C9"/>
<path d="M381.27 66.0599C381.27 80.7799 393.2 92.71 407.92 92.71H467.02L381.27 6.94995V66.05V66.0599Z" fill="#C9C9C9"/>
<path d="M338.39 84.6H0V226.56H338.39V84.6Z" fill="#F7BD38"/>
<path d="M106 177.5L132.65 136.89H108.5V125.42H149.39V133.65L122.74 174.27H149.66V185.74H105.99V177.51L106 177.5Z" fill="#F5F5F5"/>
<path d="M159.85 125.42H173.45V185.74H159.85V125.42V125.42Z" fill="#F5F5F5"/>
<path d="M187.7 125.42H208.42C221.65 125.42 232.38 130.23 232.38 144.85C232.38 159.47 221.56 165.3 208.79 165.3H201.3V185.75H187.7V125.43V125.42ZM207.96 154.47C215.45 154.47 219.06 151.14 219.06 144.85C219.06 138.56 214.99 136.25 207.59 136.25H201.3V154.48H207.96V154.47Z" fill="#F5F5F5"/>
<path d="M256.11 276.97H206.28V305.43H256.11V276.97Z" fill="#C9C9C9"/>
<path d="M305.94 305.43H256.11V333.89H305.94V305.43Z" fill="#C9C9C9"/>
<path d="M256.11 333.88H206.28V362.34H256.11V333.88Z" fill="#C9C9C9"/>
<path d="M305.94 362.34H256.11V390.8H305.94V362.34Z" fill="#C9C9C9"/>
<path d="M256.11 390.8H206.28V419.26H256.11V390.8Z" fill="#C9C9C9"/>
<path d="M305.94 419.25H256.11V447.71H305.94V419.25Z" fill="#C9C9C9"/>
<path d="M276.66 459.79H235.55L227.32 521.15C226.22 529.37 233.97 536.56 243.94 536.56H268.26C278.23 536.56 285.99 529.37 284.88 521.15L276.65 459.79H276.66ZM239.73 511.33C241.03 506.13 246.17 502.43 252.1 502.43H260.11C266.04 502.43 271.18 506.13 272.48 511.33C274.63 519.94 266.71 528.02 256.1 528.02C245.5 528.02 237.57 519.94 239.72 511.33H239.73Z" fill="#C9C9C9"/>
</g>
<defs>
<clipPath id="clip0_801_1033">
<rect width="471.66" height="600.3" fill="white"/>
</clipPath>
</defs>
</svg>
