<?xml version="1.0" encoding="UTF-8"?>
<svg width="206px" height="112px" viewBox="0 0 206 112" version="1.1" xmlns="http://www.w3.org/2000/svg" xmlns:xlink="http://www.w3.org/1999/xlink">
    <title>Group@2x</title>
    <g id="Design" stroke="none" stroke-width="1" fill="none" fill-rule="evenodd">
        <g id="Artboard" transform="translate(-896.000000, -172.000000)">
            <g id="Group" transform="translate(896.084177, 173.000000)">
                <path d="M171.563067,19.6133166 L171.220949,21.5838381 C168.989155,21.1963582 166.715184,21 164.415823,21 L164.415823,19 C166.829981,19 169.218411,19.2062417 171.563067,19.6133166 Z M186.767128,25.5273598 L185.688537,27.2115928 C183.769582,25.9826843 181.747444,24.9216048 179.643468,24.0417751 L180.41507,22.1966108 C182.626087,23.1212026 184.750917,24.2361678 186.767128,25.5273598 Z M198.518567,36.845131 L196.876185,37.9864381 C195.575467,36.1146584 194.114875,34.3576691 192.512299,32.7360238 L193.934852,31.3301989 C195.618095,33.0334712 197.152248,34.8789492 198.518567,36.845131 Z M205.026472,51.9145547 L203.069315,52.3263019 C202.598613,50.0889148 201.935095,47.9049534 201.087954,45.7943903 L202.944022,45.0493991 C203.834379,47.26763 204.531768,49.5630783 205.026472,51.9145547 Z M205.21646,68.1261139 L203.250101,67.7608287 C203.663832,65.5336845 203.886654,63.2627354 203.913144,60.9649643 L205.913011,60.9880198 C205.885196,63.4007551 205.651139,65.7862008 205.21646,68.1261139 Z M199.121215,83.2632364 L197.449846,82.1648163 C198.701706,80.2599711 199.786915,78.250025 200.691773,76.1563617 L202.52765,76.9498071 C201.576778,79.1499369 200.436488,81.2619006 199.121215,83.2632364 Z M187.666169,94.8803278 L186.544314,93.2245981 C188.431435,91.9459613 190.205571,90.5060217 191.846049,88.922453 L193.235083,90.3614055 C191.512016,92.0246975 189.648503,93.5371788 187.666169,94.8803278 Z M172.555473,101.201873 L172.165325,99.2402959 C174.408231,98.7941919 176.599302,98.1548424 178.718699,97.3312056 L179.443154,99.1953851 C177.215626,100.061044 174.912712,100.733029 172.555473,101.201873 Z M156.463516,102 L156.463516,100 L163.463516,100 L163.463516,102 L156.463516,102 Z M140.463516,102 L140.463516,100 L147.463516,100 L147.463516,102 L140.463516,102 Z M124.463516,102 L124.463516,100 L131.463516,100 L131.463516,102 L124.463516,102 Z M108.463516,102 L108.463516,100 L115.463516,100 L115.463516,102 L108.463516,102 Z M92.4635163,102 L92.4635163,100 L99.4635163,100 L99.4635163,102 L92.4635163,102 Z M76.4635163,102 L76.4635163,100 L83.4635163,100 L83.4635163,102 L76.4635163,102 Z M60.4635163,102 L60.4635163,100 L67.4635163,100 L67.4635163,102 L60.4635163,102 Z M44.4635163,102 L44.4635163,100 L51.4635163,100 L51.4635163,102 L44.4635163,102 Z M28.3508635,99.9013722 L28.9800469,98.002918 C31.1370066,98.717775 33.3578584,99.2455869 35.6234186,99.5784348 L35.3327065,101.557194 C32.9519494,101.207421 30.617858,100.652697 28.3508635,99.9013722 Z M14.1561372,91.7923052 L15.4704496,90.2847963 C17.1890962,91.7831878 19.0338698,93.1311448 20.9837051,94.3119966 L19.9476578,96.0227291 C17.8992571,94.7821845 15.9613999,93.3662124 14.1561372,91.7923052 Z M4.19606832,78.8762986 L5.98874558,77.9895584 C6.9996911,80.0333351 8.18642216,81.9853741 9.53408638,83.8242832 L7.92091286,85.0065147 C6.5051315,83.0746586 5.2583086,81.0237754 4.19606832,78.8762986 Z M0,63.1642235 L1.99599477,63.0377131 C2.14112018,65.3274029 2.4825133,67.5836034 3.01384732,69.7884298 L1.06950896,70.2569897 C0.511154326,67.9400384 0.15244518,65.5693997 0,63.1642235 Z M2.17080285,46.9724751 L4.06166406,47.6241222 C3.32116312,49.7728076 2.76711954,51.9871943 2.40769062,54.2479364 L0.432498211,53.9339062 C0.810216482,51.5581275 1.39252112,49.2307877 2.17080285,46.9724751 Z M10.4491803,32.8711987 L11.9410826,34.2032 C10.4225896,35.9039816 9.05296596,37.7326505 7.84912045,39.6682229 L6.15080631,38.6119421 C7.41547786,36.5785721 8.85418143,34.6576703 10.4491803,32.8711987 Z M23.4807983,23.0652231 L24.3461852,24.8683053 C22.2905628,25.8548985 20.324809,27.0183545 18.4703233,28.3440878 L17.3072076,26.7170777 C19.2554732,25.3243031 21.3208199,24.1019018 23.4807983,23.0652231 Z M39.2412305,19.0560192 L39.3443797,21.0533575 C37.0524304,21.1717214 34.7924368,21.4864108 32.5820838,21.9913103 L32.1367059,20.0415312 C34.4593745,19.510976 36.8338661,19.1803435 39.2412305,19.0560192 Z M55.3204354,19 L55.3204354,21 L48.3204354,21 L48.3204354,19 L55.3204354,19 Z M71.3204354,19 L71.3204354,21 L64.3204354,21 L64.3204354,19 L71.3204354,19 Z M87.3204354,19 L87.3204354,21 L80.3204354,21 L80.3204354,19 L87.3204354,19 Z M103.320435,19 L103.320435,21 L96.3204354,21 L96.3204354,19 L103.320435,19 Z M119.320435,19 L119.320435,21 L112.320435,21 L112.320435,19 L119.320435,19 Z M135.320435,19 L135.320435,21 L128.320435,21 L128.320435,19 L135.320435,19 Z M151.320435,19 L151.320435,21 L144.320435,21 L144.320435,19 L151.320435,19 Z M164.415823,19 L164.415823,21 L160.320435,21 L160.320435,19 L164.415823,19 Z" id="Rectangle" fill="#000000" fill-rule="nonzero"></path>
                <g id="Icons/Images" transform="translate(44.915823, 0.000000)">
                    <rect id="Rectangle" fill="#FFFFFF" x="0.956521739" y="8.75" width="37.3043478" height="25.2777778"></rect>
                    <rect id="Rectangle" fill="#FFFFFF" x="4.7826087" y="0.972222222" width="38.2608696" height="25.2777778"></rect>
                    <path d="M31.0869565,7.77777778 L36.3478261,7.77777778 C37.4047826,7.77777778 38.2608696,8.64791667 38.2608696,9.72222222 L38.2608696,14.5833333 L38.2608696,20.4166667 L38.2608696,33.0555556 C38.2608696,34.1298611 37.4047826,35 36.3478261,35 L1.91304348,35 C0.856086957,35 0,34.1298611 0,33.0555556 L0,9.72222222 C0,8.64791667 0.856086957,7.77777778 1.91304348,7.77777778 L24.3913043,7.77777778" id="Stroke-1" stroke="#111111" stroke-width="2" stroke-linecap="round"></path>
                    <path d="M5.73913043,3.88888889 L5.73913043,1.94444444 C5.73913043,0.870138889 6.59521739,0 7.65217391,0 L42.0869565,0 C43.143913,0 44,0.870138889 44,1.94444444 L44,25.2777778 C44,26.3520833 43.143913,27.2222222 42.0869565,27.2222222 L38.2608696,27.2222222" id="Stroke-3" stroke="#111111" stroke-width="2" stroke-linecap="round"></path>
                    <polyline id="Stroke-5" stroke="#111111" stroke-width="2" stroke-linecap="round" stroke-linejoin="round" points="36.3478261 35 24.3913043 19.4444444 14.826087 31.3444444"></polyline>
                    <polyline id="Stroke-7" stroke="#111111" stroke-width="2" stroke-linecap="round" stroke-linejoin="round" points="2.39130435 35 12.7093043 21.3888889 15.4746087 24.4961111"></polyline>
                    <path d="M4.30434783,16.5277778 C4.30434783,15.1851389 5.37469565,14.0972222 6.69565217,14.0972222 C8.0166087,14.0972222 9.08695652,15.1851389 9.08695652,16.5277778 C9.08695652,17.8704167 8.0166087,18.9583333 6.69565217,18.9583333 C5.37469565,18.9583333 4.30434783,17.8704167 4.30434783,16.5277778 Z" id="Stroke-9" stroke="#111111" stroke-width="2"></path>
                </g>
                <g id="Group" transform="translate(20.915823, 64.000000)">
                    <polygon id="background" fill="#FFFFFF" points="8.2814698 1 35 1 35 45 1 45 1 8.25473472"></polygon>
                    <path d="M0,8 L0,44 C0,45.105 0.895,46 2,46 L34,46 C35.105,46 36,45.105 36,44 L36,2 C36,0.895 35.105,0 34,0 L8,0 L0,8 Z" id="Stroke-1" stroke="#000000" stroke-width="2" stroke-linejoin="round"></path>
                    <polyline id="Stroke-3" stroke="#000000" stroke-width="2" stroke-linecap="round" stroke-linejoin="round" points="5 11 11 11 11 5"></polyline>
                    <path d="M13,21.6799 L13,34.3199 C13,34.8369 13.605,35.1639 14.099,34.9149 L26.607,28.6179 C27.131,28.3539 27.131,27.6459 26.607,27.3819 L14.099,21.0849 C13.605,20.8359 13,21.1639 13,21.6799 Z" id="Stroke-5" stroke="#000000" stroke-width="2"></path>
                </g>
                <g id="Icons/Document-Video" transform="translate(145.915823, 0.000000)">
                    <polygon id="background" fill="#FFFFFF" points="6.44114318 0.760869565 27.2222222 0.760869565 27.2222222 34.2391304 0.777777778 34.2391304 0.777777778 6.28077642"></polygon>
                    <path d="M12.77,24.27 C13.3566667,24.27 13.88,24.16 14.34,23.94 C14.8,23.72 15.2033333,23.455 15.55,23.145 L15.55,23.145 L15.766,22.947 L15.8168,23.0472 C15.9224,23.2336 16.0544,23.4026 16.2128,23.5542 L16.38,23.7 C16.6733333,23.9333333 17.05,24.0833333 17.51,24.15 C17.6833333,24.0366667 17.8516667,23.86 18.015,23.62 C18.1783333,23.38 18.2833333,23.1566667 18.33,22.95 C18.11,22.7633333 17.9616667,22.5366667 17.885,22.27 C17.8083333,22.0033333 17.77,21.6933333 17.77,21.34 L17.77,21.34 L17.77,17.25 C17.77,16.4633333 17.625,15.8216667 17.335,15.325 C17.045,14.8283333 16.6483333,14.4633333 16.145,14.23 C15.6416667,13.9966667 15.0733333,13.88 14.44,13.88 C13.9866667,13.88 13.505,13.92 12.995,14 C12.485,14.08 11.985,14.19 11.495,14.33 C11.005,14.47 10.5633333,14.62 10.17,14.78 C10.19,15.0866667 10.2566667,15.3983333 10.37,15.715 C10.4833333,16.0316667 10.63,16.2833333 10.81,16.47 C11.3366667,16.2833333 11.8633333,16.115 12.39,15.965 C12.9166667,15.815 13.42,15.74 13.9,15.74 C14.4066667,15.74 14.7916667,15.87 15.055,16.13 C15.3183333,16.39 15.45,16.8066667 15.45,17.38 L15.45,17.38 L15.45,18.04 L15.23375,18.015625 L15.23375,18.015625 L14.89,17.99 C14.4233333,17.9633333 14.0133333,17.95 13.66,17.95 C12.9466667,17.95 12.2966667,18.0683333 11.71,18.305 C11.1233333,18.5416667 10.6583333,18.9083333 10.315,19.405 C9.97166667,19.9016667 9.8,20.5333333 9.8,21.3 C9.8,21.78 9.90833333,22.2466667 10.125,22.7 C10.3416667,23.1533333 10.6683333,23.5283333 11.105,23.825 C11.5416667,24.1216667 12.0966667,24.27 12.77,24.27 Z M13.35,22.46 C12.95,22.46 12.6433333,22.3333333 12.43,22.08 C12.2166667,21.8266667 12.11,21.5133333 12.11,21.14 C12.11,20.6466667 12.2583333,20.2533333 12.555,19.96 C12.8516667,19.6666667 13.28,19.52 13.84,19.52 C14.1933333,19.52 14.5883333,19.5316667 15.025,19.555 C15.1123333,19.5596667 15.1977333,19.5654667 15.2812,19.5724 L15.45,19.59 L15.45,21.439 L15.3442969,21.5486719 C15.2321094,21.6573177 15.1148177,21.7566927 14.9924219,21.8467969 L14.805,21.975 C14.295,22.2983333 13.81,22.46 13.35,22.46 Z" id="a" fill="#202020" fill-rule="nonzero"></path>
                    <path d="M0,6.08695652 L0,33.4782609 C0,34.3190217 0.696111111,35 1.55555556,35 L26.4444444,35 C27.3038889,35 28,34.3190217 28,33.4782609 L28,1.52173913 C28,0.680978261 27.3038889,0 26.4444444,0 L6.22222222,0 L0,6.08695652 Z" id="Stroke-1" stroke="#000000" stroke-width="2" stroke-linejoin="round"></path>
                    <polyline id="Stroke-3" stroke="#000000" stroke-width="2" stroke-linecap="round" stroke-linejoin="round" points="3.88888889 8.36956522 8.55555556 8.36956522 8.55555556 3.80434783"></polyline>
                </g>
                <g id="Group" transform="translate(121.915823, 64.000000)">
                    <polygon id="background" fill="#FFFFFF" points="7.42482629 1 31 1 31 40 1 40 0 6"></polygon>
                    <polygon id="background" fill="#FFFFFF" points="14.1853158 5 37 5 37 45 7.96774194 45 7 10.1282051"></polygon>
                    <polyline id="Stroke-1" stroke="#000000" stroke-width="2" stroke-linecap="round" stroke-linejoin="round" points="4.5 9.5 9.5 9.5 9.5 4.5"></polyline>
                    <line x1="15" y1="13" x2="23" y2="13" id="Stroke-2" stroke="#000000" stroke-width="2" stroke-linecap="round" stroke-linejoin="round"></line>
                    <line x1="7" y1="29" x2="23" y2="29" id="Stroke-3" stroke="#000000" stroke-width="2" stroke-linecap="round" stroke-linejoin="round"></line>
                    <line x1="7" y1="21" x2="23" y2="21" id="Stroke-4" stroke="#000000" stroke-width="2" stroke-linecap="round" stroke-linejoin="round"></line>
                    <g id="Group-9" stroke="#000000" stroke-linecap="round" stroke-linejoin="round" stroke-width="2">
                        <path d="M30,32 L30,38.5 C30,39.328 29.328,40 28.5,40 L1.5,40 C0.672,40 0,39.328 0,38.5 L0,6.5 C0,6.185 0.148,5.889 0.4,5.7 L7.733,0.2 C7.906,0.07 8.117,0 8.333,0 L28.5,0 C29.328,0 30,0.672 30,1.5 L30,26" id="Stroke-5"></path>
                        <path d="M34,6 L36.5,6 C37.328,6 38,6.672 38,7.5 L38,44.5 C38,45.328 37.328,46 36.5,46 L9.5,46 C8.672,46 8,45.328 8,44.5 L8,40" id="Stroke-7"></path>
                    </g>
                </g>
            </g>
        </g>
    </g>
</svg>