<svg width="648" height="367" viewBox="0 0 648 367" fill="none" xmlns="http://www.w3.org/2000/svg">
<rect width="648" height="367" rx="6" fill="#F9F9F9"/>
<path d="M326.36 163.8H320.6L313.76 174.996L306.92 163.8H301.16V189H306.92V174.348L313.436 185.04H314.084L320.6 174.348V189H326.36V163.8ZM338.971 189.504C344.263 189.504 348.511 185.364 348.511 180C348.511 174.636 344.263 170.496 338.971 170.496C333.679 170.496 329.431 174.636 329.431 180C329.431 185.364 333.679 189.504 338.971 189.504ZM338.971 184.248C336.631 184.248 334.831 182.556 334.831 180C334.831 177.444 336.631 175.752 338.971 175.752C341.311 175.752 343.111 177.444 343.111 180C343.111 182.556 341.311 184.248 338.971 184.248ZM361.582 176.184V171H357.874V165.96L352.474 167.58V171H349.594V176.184H352.474V182.556C352.474 187.596 354.526 189.72 361.582 189V184.104C359.206 184.248 357.874 184.104 357.874 182.556V176.184H361.582ZM367.16 169.416C368.924 169.416 370.4 167.94 370.4 166.176C370.4 164.412 368.924 162.936 367.16 162.936C365.396 162.936 363.92 164.412 363.92 166.176C363.92 167.94 365.396 169.416 367.16 169.416ZM364.46 189H369.86V171H364.46V189ZM385.115 171L381.371 182.412L377.627 171H371.651L378.311 189H384.431L391.091 171H385.115Z" fill="#333333"/>
<path d="M305.12 198.4H300.08V211H305.12C308.594 211 311.24 208.264 311.24 204.7C311.24 201.136 308.594 198.4 305.12 198.4ZM305.12 208.228H302.96V201.172H305.12C307.1 201.172 308.468 202.54 308.468 204.7C308.468 206.86 307.1 208.228 305.12 208.228ZM315.649 208.228V205.996H320.149V203.26H315.649V201.172H320.599V198.4H312.769V211H320.689V208.228H315.649ZM326.634 211.252C329.37 211.252 331.314 209.812 331.314 207.382C331.314 204.718 329.172 204.052 327.264 203.476C325.302 202.882 324.996 202.486 324.996 201.91C324.996 201.406 325.446 200.956 326.346 200.956C327.498 200.956 328.092 201.514 328.524 202.414L330.954 200.992C330.036 199.138 328.416 198.148 326.346 198.148C324.168 198.148 322.116 199.552 322.116 201.982C322.116 204.394 323.952 205.294 325.824 205.816C327.714 206.338 328.434 206.644 328.434 207.418C328.434 207.904 328.092 208.444 326.724 208.444C325.302 208.444 324.528 207.742 324.078 206.698L321.594 208.138C322.296 209.992 323.988 211.252 326.634 211.252ZM332.576 198.4V211H335.456V198.4H332.576ZM350.005 203.98H343.687V206.5H347.053C346.603 207.706 345.505 208.444 343.831 208.444C341.383 208.444 339.871 206.878 339.871 204.736C339.871 202.522 341.455 200.956 343.579 200.956C345.001 200.956 346.135 201.604 346.657 202.432L349.105 201.028C348.043 199.336 346.009 198.148 343.597 198.148C339.889 198.148 336.991 201.064 336.991 204.718C336.991 208.336 339.835 211.252 343.795 211.252C347.323 211.252 350.005 208.912 350.005 205.06V203.98ZM358.558 198.4V205.24L353.698 198.4H351.538V211H354.418V204.16L359.278 211H361.438V198.4H358.558ZM372.327 211.252C375.063 211.252 377.007 209.812 377.007 207.382C377.007 204.718 374.865 204.052 372.957 203.476C370.995 202.882 370.689 202.486 370.689 201.91C370.689 201.406 371.139 200.956 372.039 200.956C373.191 200.956 373.785 201.514 374.217 202.414L376.647 200.992C375.729 199.138 374.109 198.148 372.039 198.148C369.861 198.148 367.809 199.552 367.809 201.982C367.809 204.394 369.645 205.294 371.517 205.816C373.407 206.338 374.127 206.644 374.127 207.418C374.127 207.904 373.785 208.444 372.417 208.444C370.995 208.444 370.221 207.742 369.771 206.698L367.287 208.138C367.989 209.992 369.681 211.252 372.327 211.252ZM388.071 198.4H384.795L382.401 203.26L380.007 198.4H376.731L380.961 206.158V211H383.841V206.158L388.071 198.4ZM392.748 211.252C395.484 211.252 397.428 209.812 397.428 207.382C397.428 204.718 395.286 204.052 393.378 203.476C391.416 202.882 391.11 202.486 391.11 201.91C391.11 201.406 391.56 200.956 392.46 200.956C393.612 200.956 394.206 201.514 394.638 202.414L397.068 200.992C396.15 199.138 394.53 198.148 392.46 198.148C390.282 198.148 388.23 199.552 388.23 201.982C388.23 204.394 390.066 205.294 391.938 205.816C393.828 206.338 394.548 206.644 394.548 207.418C394.548 207.904 394.206 208.444 392.838 208.444C391.416 208.444 390.642 207.742 390.192 206.698L387.708 208.138C388.41 209.992 390.102 211.252 392.748 211.252ZM406.781 198.4H397.421V201.172H400.661V211H403.541V201.172H406.781V198.4ZM410.831 208.228V205.996H415.331V203.26H410.831V201.172H415.781V198.4H407.951V211H415.871V208.228H410.831ZM430.006 198.4H427.126L423.706 203.998L420.286 198.4H417.406V211H420.286V203.674L423.544 209.02H423.868L427.126 203.674V211H430.006V198.4Z" fill="#BFBFBF"/>
<path d="M212 177C212 165.402 221.402 156 233 156H247C258.598 156 268 165.402 268 177V212H233C221.402 212 212 202.598 212 191V177Z" fill="#0073E6"/>
<path d="M250.8 174H246L240.3 183.33L234.6 174H229.8V195H234.6V182.79L240.03 191.7H240.57L246 182.79V195H250.8V174Z" fill="white"/>
<rect x="210" y="2" width="2" height="365" fill="#F19CFF"/>
<rect x="190" y="2" width="2" height="365" fill="#F19CFF"/>
<rect x="430" y="2" width="2" height="365" fill="#F19CFF"/>
<rect x="450" y="2" width="2" height="365" fill="#F19CFF"/>
</svg>
