<?xml version="1.0" encoding="UTF-8"?>
<svg width="302px" height="167px" viewBox="0 0 302 167" version="1.1" xmlns="http://www.w3.org/2000/svg" xmlns:xlink="http://www.w3.org/1999/xlink">
    <title>search@2x</title>
    <g id="Design" stroke="none" stroke-width="1" fill="none" fill-rule="evenodd">
        <g id="1.0-UI-Components" transform="translate(-414.000000, -1239.000000)">
            <g id="::-search" transform="translate(283.420471, 1139.000000)">
                <g id="search" transform="translate(131.000000, 102.167908)">
                    <path d="M6,138.832092 L295,138.832092 C297.209139,138.832092 299,140.622953 299,142.832092 C299,143.360196 298.895425,143.883073 298.692308,144.370554 L293.051282,157.909015 C291.809126,160.890191 288.896273,162.832092 285.666667,162.832092 L15.3333333,162.832092 C12.1037265,162.832092 9.19087441,160.890191 7.94871795,157.909015 L2.30769231,144.370554 C1.45802346,142.331349 2.42233323,139.989453 4.46153846,139.139785 C4.94901914,138.936668 5.47189593,138.832092 6,138.832092 Z" id="Rectangle" stroke="#DEDEDE" stroke-width="4"></path>
                    <path d="M27,127.240295 L27,15 C27,6.71572875 33.7157288,1.52179594e-15 42,0 L260.990845,0 C269.275116,-1.52179594e-15 275.990845,6.71572875 275.990845,15 L275.990845,127.240295 L275.990845,127.240295" id="Path-2" stroke="#DEDEDE" stroke-width="4"></path>
                    <g id="Group" transform="translate(125.579529, 44.832092)" fill="#4574C7" fill-rule="nonzero">
                        <g id="Icons/Search">
                            <path d="M22.6666667,-2.83333333 C8.58340555,-2.83333333 -2.83333333,8.58340555 -2.83333333,22.6666667 C-2.83333333,36.7499278 8.58340555,48.1666667 22.6666667,48.1666667 C36.7499278,48.1666667 48.1666667,36.7499278 48.1666667,22.6666667 C48.1666667,8.58340555 36.7499278,-2.83333333 22.6666667,-2.83333333 Z M22.6666667,2.83333333 C33.6203142,2.83333333 42.5,11.7130191 42.5,22.6666667 C42.5,33.6203142 33.6203142,42.5 22.6666667,42.5 C11.7130191,42.5 2.83333333,33.6203142 2.83333333,22.6666667 C2.83333333,11.7130191 11.7130191,2.83333333 22.6666667,2.83333333 Z" id="Oval"></path>
                            <path d="M36.6715308,36.6715308 C37.692902,35.6501596 39.3000567,35.5715925 40.4115484,36.4358297 L40.6784692,36.6715308 L53.0034692,48.9965308 C54.1099547,50.1030163 54.1099547,51.8969837 53.0034692,53.0034692 C51.982098,54.0248404 50.3749433,54.1034075 49.2634516,53.2391703 L48.9965308,53.0034692 L36.6715308,40.6784692 C35.5650453,39.5719837 35.5650453,37.7780163 36.6715308,36.6715308 Z" id="Path"></path>
                        </g>
                    </g>
                </g>
            </g>
        </g>
    </g>
</svg>