<?xml version="1.0" encoding="UTF-8"?>
<svg width="37px" height="18px" viewBox="0 0 37 18" version="1.1" xmlns="http://www.w3.org/2000/svg" xmlns:xlink="http://www.w3.org/1999/xlink">
    <title>Rectangle 3@2x</title>
    <g id="Design" stroke="none" stroke-width="1" fill="none" fill-rule="evenodd">
        <g id="1.0-UI-Components" transform="translate(-299.000000, -389.000000)" fill="#000000" fill-rule="nonzero">
            <path d="M332,389 L303,389 C300.790861,389 299,390.896206 299,393.235294 L299,402.764706 C299,405.103794 300.790861,407 303,407 L332,407 C334.209139,407 336,405.103794 336,402.764706 L336,393.235294 C336,390.896206 334.209139,389 332,389 Z M303,391.117647 L332,391.117647 C333.104569,391.117647 334,392.06575 334,393.235294 L334,402.764706 C334,403.93425 333.104569,404.882353 332,404.882353 L303,404.882353 C301.895431,404.882353 301,403.93425 301,402.764706 L301,393.235294 C301,392.06575 301.895431,391.117647 303,391.117647 Z M324,397 L330,397 C330.552285,397 331,397.447715 331,398 C331,398.552285 330.552285,399 330,399 L324,399 C323.447715,399 323,398.552285 323,398 C323,397.447715 323.447715,397 324,397 Z M326,401 L326,395 C326,394.447715 326.447715,394 327,394 C327.552285,394 328,394.447715 328,395 L328,401 C328,401.552285 327.552285,402 327,402 C326.447715,402 326,401.552285 326,401 Z" id="Rectangle-3"></path>
        </g>
    </g>
</svg>