<svg width="326" height="220" viewBox="0 0 326 220" fill="none" xmlns="http://www.w3.org/2000/svg">
<g clip-path="url(#clip0_10040_156)">
<g clip-path="url(#clip1_10040_156)">
<rect x="246.5" y="17.5" width="172" height="107" rx="3.5" stroke="#C8C8C8" style="stroke:#C8C8C8;stroke:color(display-p3 0.7833 0.7833 0.7833);stroke-opacity:1;" stroke-dasharray="2 2"/>
<rect x="246.5" y="132.5" width="172" height="91" rx="3.5" stroke="#C8C8C8" style="stroke:#C8C8C8;stroke:color(display-p3 0.7833 0.7833 0.7833);stroke-opacity:1;" stroke-dasharray="2 2"/>
<rect x="-113.5" y="81.5" width="172" height="123" rx="3.5" stroke="#C8C8C8" style="stroke:#C8C8C8;stroke:color(display-p3 0.7833 0.7833 0.7833);stroke-opacity:1;" stroke-dasharray="2 2"/>
<rect x="-113.5" y="-17.5" width="172" height="91" rx="3.5" stroke="#C8C8C8" style="stroke:#C8C8C8;stroke:color(display-p3 0.7833 0.7833 0.7833);stroke-opacity:1;" stroke-dasharray="2 2"/>
<rect x="66.5" y="163.5" width="172" height="91" rx="3.5" stroke="#C8C8C8" style="stroke:#C8C8C8;stroke:color(display-p3 0.7833 0.7833 0.7833);stroke-opacity:1;" stroke-dasharray="2 2"/>
<rect x="66.5" y="-7.5" width="172" height="91" rx="3.5" stroke="#C8C8C8" style="stroke:#C8C8C8;stroke:color(display-p3 0.7833 0.7833 0.7833);stroke-opacity:1;" stroke-dasharray="2 2"/>
<rect x="66.25" y="89.25" width="172.5" height="66.5" rx="3.75" stroke="#8638E5" style="stroke:#8638E5;stroke:color(display-p3 0.5255 0.2196 0.8980);stroke-opacity:1;" stroke-width="0.5" stroke-dasharray="2 2"/>
<path d="M67.5 155.5L77 145" stroke="#8638E5" style="stroke:#8638E5;stroke:color(display-p3 0.5255 0.2196 0.8980);stroke-opacity:1;" stroke-width="0.5" stroke-dasharray="2 2"/>
<path d="M238.5 154.5L249 145" stroke="#8638E5" style="stroke:#8638E5;stroke:color(display-p3 0.5255 0.2196 0.8980);stroke-opacity:1;" stroke-width="0.5" stroke-dasharray="2 2"/>
<path d="M67.5 89.5L77 77" stroke="#8638E5" style="stroke:#8638E5;stroke:color(display-p3 0.5255 0.2196 0.8980);stroke-opacity:1;" stroke-width="0.5" stroke-dasharray="2 2"/>
</g>
<g filter="url(#filter0_dd_10040_156)">
<rect x="76" y="74" width="174" height="72" rx="4" fill="#EDDEFF" fill-opacity="0.6" style="fill:#EDDEFF;fill:color(display-p3 0.9300 0.8725 1.0000);fill-opacity:0.6;"/>
<rect x="75.65" y="73.65" width="174.7" height="72.7" rx="4.35" stroke="#8638E5" style="stroke:#8638E5;stroke:color(display-p3 0.5255 0.2196 0.8980);stroke-opacity:1;" stroke-width="0.7" stroke-dasharray="2 2"/>
<path d="M115.667 104H106.333C105.597 104 105 104.597 105 105.333V114.667C105 115.403 105.597 116 106.333 116H115.667C116.403 116 117 115.403 117 114.667V105.333C117 104.597 116.403 104 115.667 104Z" stroke="#8638E5" style="stroke:#8638E5;stroke:color(display-p3 0.5255 0.2196 0.8980);stroke-opacity:1;" stroke-linecap="round" stroke-linejoin="round"/>
<path d="M109 109.333C109.736 109.333 110.333 108.736 110.333 108C110.333 107.264 109.736 106.667 109 106.667C108.264 106.667 107.667 107.264 107.667 108C107.667 108.736 108.264 109.333 109 109.333Z" stroke="#8638E5" style="stroke:#8638E5;stroke:color(display-p3 0.5255 0.2196 0.8980);stroke-opacity:1;" stroke-linecap="round" stroke-linejoin="round"/>
<path d="M117 112L114.943 109.943C114.693 109.693 114.354 109.552 114 109.552C113.646 109.552 113.307 109.693 113.057 109.943L107 116" stroke="#8638E5" style="stroke:#8638E5;stroke:color(display-p3 0.5255 0.2196 0.8980);stroke-opacity:1;" stroke-linecap="round" stroke-linejoin="round"/>
<rect x="81.25" y="79.25" width="57.5" height="61.5" rx="1.75" stroke="#8638E5" style="stroke:#8638E5;stroke:color(display-p3 0.5255 0.2196 0.8980);stroke-opacity:1;" stroke-width="0.5" stroke-dasharray="2 3"/>
<rect x="156.5" y="93.5" width="77" height="2" rx="1" fill="#8638E5" fill-opacity="0.9" style="fill:#8638E5;fill:color(display-p3 0.5255 0.2196 0.8980);fill-opacity:0.9;"/>
<rect x="157" y="101" width="56" height="2" rx="1" fill="#8638E5" fill-opacity="0.9" style="fill:#8638E5;fill:color(display-p3 0.5255 0.2196 0.8980);fill-opacity:0.9;"/>
<rect x="157" y="108" width="56" height="2" rx="1" fill="#8638E5" fill-opacity="0.9" style="fill:#8638E5;fill:color(display-p3 0.5255 0.2196 0.8980);fill-opacity:0.9;"/>
<rect x="157" y="120" width="38" height="9" rx="4" fill="black" style="fill:black;fill-opacity:1;"/>
<rect x="157" y="118" width="38" height="11" rx="2" fill="#444147" style="fill:#444147;fill:color(display-p3 0.2666 0.2566 0.2787);fill-opacity:1;"/>
<rect x="164" y="123" width="24" height="1" rx="0.5" fill="white" style="fill:white;fill-opacity:1;"/>
</g>
</g>
<defs>
<filter id="filter0_dd_10040_156" x="62.4028" y="71.3" width="201.194" height="99.6917" filterUnits="userSpaceOnUse" color-interpolation-filters="sRGB">
<feFlood flood-opacity="0" result="BackgroundImageFix"/>
<feColorMatrix in="SourceAlpha" type="matrix" values="0 0 0 0 0 0 0 0 0 0 0 0 0 0 0 0 0 0 127 0" result="hardAlpha"/>
<feOffset dy="2.5182"/>
<feGaussianBlur stdDeviation="1.42514"/>
<feColorMatrix type="matrix" values="0 0 0 0 0 0 0 0 0 0 0 0 0 0 0 0 0 0 0.0253031 0"/>
<feBlend mode="normal" in2="BackgroundImageFix" result="effect1_dropShadow_10040_156"/>
<feColorMatrix in="SourceAlpha" type="matrix" values="0 0 0 0 0 0 0 0 0 0 0 0 0 0 0 0 0 0 127 0" result="hardAlpha"/>
<feOffset dy="11.3946"/>
<feGaussianBlur stdDeviation="6.4486"/>
<feColorMatrix type="matrix" values="0 0 0 0 0 0 0 0 0 0 0 0 0 0 0 0 0 0 0.045 0"/>
<feBlend mode="normal" in2="effect1_dropShadow_10040_156" result="effect2_dropShadow_10040_156"/>
<feBlend mode="normal" in="SourceGraphic" in2="effect2_dropShadow_10040_156" result="shape"/>
</filter>
<clipPath id="clip0_10040_156">
<rect width="300" height="180" fill="white" style="fill:white;fill-opacity:1;" transform="translate(13 20)"/>
</clipPath>
<clipPath id="clip1_10040_156">
<rect width="300" height="185" fill="white" style="fill:white;fill-opacity:1;" transform="translate(13 20)"/>
</clipPath>
</defs>
</svg>
