<svg width="327" height="220" viewBox="0 0 327 220" fill="none" xmlns="http://www.w3.org/2000/svg">
<g clip-path="url(#clip0_10058_453)">
<g clip-path="url(#clip1_10058_453)">
<g filter="url(#filter0_dddddd_10058_453)">
<path d="M250 124.5C249.766 124.5 249.537 124.477 249.316 124.433L249.219 124.924C248.695 124.82 248.207 124.614 247.778 124.326L248.056 123.911C247.674 123.655 247.345 123.326 247.089 122.944L246.674 123.222C246.386 122.793 246.18 122.305 246.076 121.781L246.567 121.684C246.523 121.463 246.5 121.234 246.5 121V120H246V118H246.5V116H246V114H246.5V112H246V110H246.5V108H246V106H246.5V104H246V102H246.5V100H246V98H246.5V96H246V94H246.5V92H246V90H246.5V88H246V86H246.5V84H246V82H246.5V80H246V78H246.5V76H246V74H246.5V72H246V70H246.5V68H246V66H246.5V64H246V62H246.5V60H246V58H246.5V56H246V54H246.5V52H246V50H246.5V48H246V46H246.5V44H246V42H246.5V40H246V38H246.5V36H246V34H246.5V32H246V30H246.5V28H246V26H246.5V24H246V22H246.5V21C246.5 20.7656 246.523 20.5371 246.567 20.3164L246.076 20.2193C246.18 19.6946 246.386 19.2067 246.674 18.7775L247.089 19.0557C247.345 18.6738 247.674 18.3449 248.056 18.0892L247.778 17.6737C248.207 17.3864 248.695 17.18 249.219 17.0761L249.316 17.5666C249.537 17.523 249.766 17.5 250 17.5H251.006V17H253.018V17.5H255.03V17H257.043V17.5H259.055V17H261.067V17.5H263.079V17H265.091V17.5H267.104V17H269.116V17.5H271.128V17H273.14V17.5H275.152V17H277.165V17.5H279.177V17H281.189V17.5H283.201V17H285.213V17.5H287.226V17H289.238V17.5H291.25V17H293.262V17.5H295.274V17H297.287V17.5H299.299V17H301.311V17.5H303.323V17H305.335V17.5H307.348V17H309.36V17.5H311.372V17H313.384V17.5H315.396V17H317.409V17.5H319.421V17H321.433V17.5H323.445V17H325.457V17.5H327.47V17H329.482V17.5H331.494V17H333.506V17.5H335.518V17H337.53V17.5H339.543V17H341.555V17.5H343.567V17H345.579V17.5H347.591V17H349.604V17.5H351.616V17H353.628V17.5H355.64V17H357.652V17.5H359.665V17H361.677V17.5H363.689V17H365.701V17.5H367.713V17H369.726V17.5H371.738V17H373.75V17.5H375.762V17H377.774V17.5H379.786V17H381.799V17.5H383.811V17H385.823V17.5H387.835V17H389.847V17.5H391.86V17H393.872V17.5H395.884V17H397.896V17.5H399.908V17H401.921V17.5H403.933V17H405.945V17.5H407.957V17H409.969V17.5H411.982V17H413.994V17.5H415C415.234 17.5 415.463 17.523 415.684 17.5666L415.781 17.0761C416.305 17.18 416.793 17.3864 417.222 17.6737L416.944 18.0892C417.326 18.3449 417.655 18.6738 417.911 19.0557L418.326 18.7775C418.614 19.2067 418.82 19.6946 418.924 20.2194L418.433 20.3164C418.477 20.5371 418.5 20.7656 418.5 21V22H419V24H418.5V26H419V28H418.5V30H419V32H418.5V34H419V36H418.5V38H419V40H418.5V42H419V44H418.5V46H419V48H418.5V50H419V52H418.5V54H419V56H418.5V58H419V60H418.5V62H419V64H418.5V66H419V68H418.5V70H419V72H418.5V74H419V76H418.5V78H419V80H418.5V82H419V84H418.5V86H419V88H418.5V90H419V92H418.5V94H419V96H418.5V98H419V100H418.5V102H419V104H418.5V106H419V108H418.5V110H419V112H418.5V114H419V116H418.5V118H419V120H418.5V121C418.5 121.234 418.477 121.463 418.433 121.684L418.924 121.781C418.82 122.305 418.614 122.793 418.326 123.222L417.911 122.944C417.655 123.326 417.326 123.655 416.944 123.911L417.222 124.326C416.793 124.614 416.305 124.82 415.781 124.924L415.684 124.433C415.463 124.477 415.234 124.5 415 124.5H413.994V125H411.982V124.5H409.97V125H407.957V124.5H405.945V125H403.933V124.5H401.921V125H399.909V124.5H397.896V125H395.884V124.5H393.872V125H391.86V124.5H389.848V125H387.835V124.5H385.823V125H383.811V124.5H381.799V125H379.787V124.5H377.774V125H375.762V124.5H373.75V125H371.738V124.5H369.726V125H367.713V124.5H365.701V125H363.689V124.5H361.677V125H359.665V124.5H357.652V125H355.64V124.5H353.628V125H351.616V124.5H349.604V125H347.591V124.5H345.579V125H343.567V124.5H341.555V125H339.543V124.5H337.53V125H335.518V124.5H333.506V125H331.494V124.5H329.482V125H327.47V124.5H325.457V125H323.445V124.5H321.433V125H319.421V124.5H317.409V125H315.396V124.5H313.384V125H311.372V124.5H309.36V125H307.348V124.5H305.335V125H303.323V124.5H301.311V125H299.299V124.5H297.287V125H295.274V124.5H293.262V125H291.25V124.5H289.238V125H287.226V124.5H285.214V125H283.201V124.5H281.189V125H279.177V124.5H277.165V125H275.153V124.5H273.14V125H271.128V124.5H269.116V125H267.104V124.5H265.092V125H263.079V124.5H261.067V125H259.055V124.5H257.043V125H255.031V124.5H253.018V125H251.006V124.5H250Z" stroke="url(#paint0_linear_10058_453)" style="" stroke-dasharray="2 2"/>
</g>
<path d="M250 223.5C249.766 223.5 249.537 223.477 249.316 223.433L249.219 223.924C248.695 223.82 248.207 223.614 247.778 223.326L248.056 222.911C247.674 222.655 247.345 222.326 247.089 221.944L246.674 222.222C246.386 221.793 246.18 221.305 246.076 220.781L246.567 220.684C246.523 220.463 246.5 220.234 246.5 220V219H246V217H246.5V215H246V213H246.5V211H246V209H246.5V207H246V205H246.5V203H246V201H246.5V199H246V197H246.5V195H246V193H246.5V191H246V189H246.5V187H246V185H246.5V183H246V181H246.5V179H246V177H246.5V175H246V173H246.5V171H246V169H246.5V167H246V165H246.5V163H246V161H246.5V159H246V157H246.5V155H246V153H246.5V151H246V149H246.5V147H246V145H246.5V143H246V141H246.5V139H246V137H246.5V136C246.5 135.766 246.523 135.537 246.567 135.316L246.076 135.219C246.18 134.695 246.386 134.207 246.674 133.778L247.089 134.056C247.345 133.674 247.674 133.345 248.056 133.089L247.778 132.674C248.207 132.386 248.695 132.18 249.219 132.076L249.316 132.567C249.537 132.523 249.766 132.5 250 132.5H251.006V132H253.018V132.5H255.03V132H257.043V132.5H259.055V132H261.067V132.5H263.079V132H265.091V132.5H267.104V132H269.116V132.5H271.128V132H273.14V132.5H275.152V132H277.165V132.5H279.177V132H281.189V132.5H283.201V132H285.213V132.5H287.226V132H289.238V132.5H291.25V132H293.262V132.5H295.274V132H297.287V132.5H299.299V132H301.311V132.5H303.323V132H305.335V132.5H307.348V132H309.36V132.5H311.372V132H313.384V132.5H315.396V132H317.409V132.5H319.421V132H321.433V132.5H323.445V132H325.457V132.5H327.47V132H329.482V132.5H331.494V132H333.506V132.5H335.518V132H337.53V132.5H339.543V132H341.555V132.5H343.567V132H345.579V132.5H347.591V132H349.604V132.5H351.616V132H353.628V132.5H355.64V132H357.652V132.5H359.665V132H361.677V132.5H363.689V132H365.701V132.5H367.713V132H369.726V132.5H371.738V132H373.75V132.5H375.762V132H377.774V132.5H379.786V132H381.799V132.5H383.811V132H385.823V132.5H387.835V132H389.847V132.5H391.86V132H393.872V132.5H395.884V132H397.896V132.5H399.908V132H401.921V132.5H403.933V132H405.945V132.5H407.957V132H409.969V132.5H411.982V132H413.994V132.5H415C415.234 132.5 415.463 132.523 415.684 132.567L415.781 132.076C416.305 132.18 416.793 132.386 417.222 132.674L416.944 133.089C417.326 133.345 417.655 133.674 417.911 134.056L418.326 133.778C418.614 134.207 418.82 134.695 418.924 135.219L418.433 135.316C418.477 135.537 418.5 135.766 418.5 136V137H419V139H418.5V141H419V143H418.5V145H419V147H418.5V149H419V151H418.5V153H419V155H418.5V157H419V159H418.5V161H419V163H418.5V165H419V167H418.5V169H419V171H418.5V173H419V175H418.5V177H419V179H418.5V181H419V183H418.5V185H419V187H418.5V189H419V191H418.5V193H419V195H418.5V197H419V199H418.5V201H419V203H418.5V205H419V207H418.5V209H419V211H418.5V213H419V215H418.5V217H419V219H418.5V220C418.5 220.234 418.477 220.463 418.433 220.684L418.924 220.781C418.82 221.305 418.614 221.793 418.326 222.222L417.911 221.944C417.655 222.326 417.326 222.655 416.944 222.911L417.222 223.326C416.793 223.614 416.305 223.82 415.781 223.924L415.684 223.433C415.463 223.477 415.234 223.5 415 223.5H413.994V224H411.982V223.5H409.97V224H407.957V223.5H405.945V224H403.933V223.5H401.921V224H399.909V223.5H397.896V224H395.884V223.5H393.872V224H391.86V223.5H389.848V224H387.835V223.5H385.823V224H383.811V223.5H381.799V224H379.787V223.5H377.774V224H375.762V223.5H373.75V224H371.738V223.5H369.726V224H367.713V223.5H365.701V224H363.689V223.5H361.677V224H359.665V223.5H357.652V224H355.64V223.5H353.628V224H351.616V223.5H349.604V224H347.591V223.5H345.579V224H343.567V223.5H341.555V224H339.543V223.5H337.53V224H335.518V223.5H333.506V224H331.494V223.5H329.482V224H327.47V223.5H325.457V224H323.445V223.5H321.433V224H319.421V223.5H317.409V224H315.396V223.5H313.384V224H311.372V223.5H309.36V224H307.348V223.5H305.335V224H303.323V223.5H301.311V224H299.299V223.5H297.287V224H295.274V223.5H293.262V224H291.25V223.5H289.238V224H287.226V223.5H285.214V224H283.201V223.5H281.189V224H279.177V223.5H277.165V224H275.153V223.5H273.14V224H271.128V223.5H269.116V224H267.104V223.5H265.092V224H263.079V223.5H261.067V224H259.055V223.5H257.043V224H255.031V223.5H253.018V224H251.006V223.5H250Z" stroke="url(#paint1_linear_10058_453)" style="" stroke-dasharray="2 2"/>
<path d="M-110 204.5C-110.234 204.5 -110.463 204.477 -110.684 204.433L-110.781 204.924C-111.305 204.82 -111.793 204.614 -112.222 204.326L-111.944 203.911C-112.326 203.655 -112.655 203.326 -112.911 202.944L-113.326 203.222C-113.614 202.793 -113.82 202.305 -113.924 201.781L-113.433 201.684C-113.477 201.463 -113.5 201.234 -113.5 201V200H-114V198H-113.5V196H-114V194H-113.5V192H-114V190H-113.5V188H-114V186H-113.5V184H-114V182H-113.5V180H-114V178H-113.5V176H-114V174H-113.5V172H-114V170H-113.5V168H-114V166H-113.5V164H-114V162H-113.5V160H-114V158H-113.5V156H-114V154H-113.5V152H-114V150H-113.5V148H-114V146H-113.5V144H-114V142H-113.5V140H-114V138H-113.5V136H-114V134H-113.5V132H-114V130H-113.5V128H-114V126H-113.5V124H-114V122H-113.5V120H-114V118H-113.5V116H-114V114H-113.5V112H-114V110H-113.5V108H-114V106H-113.5V104H-114V102H-113.5V100H-114V98H-113.5V96H-114V94H-113.5V92H-114V90H-113.5V88H-114V86H-113.5V85C-113.5 84.7656 -113.477 84.5371 -113.433 84.3164L-113.924 84.2194C-113.82 83.6946 -113.614 83.2067 -113.326 82.7775L-112.911 83.0557C-112.655 82.6738 -112.326 82.3449 -111.944 82.0892L-112.222 81.6737C-111.793 81.3864 -111.305 81.18 -110.781 81.0761L-110.684 81.5666C-110.463 81.523 -110.234 81.5 -110 81.5H-108.994V81H-106.982V81.5H-104.97V81H-102.957V81.5H-100.945V81H-98.9329V81.5H-96.9207V81H-94.9085V81.5H-92.8963V81H-90.8841V81.5H-88.872V81H-86.8598V81.5H-84.8476V81H-82.8354V81.5H-80.8232V81H-78.811V81.5H-76.7988V81H-74.7866V81.5H-72.7744V81H-70.7622V81.5H-68.75V81H-66.7378V81.5H-64.7256V81H-62.7134V81.5H-60.7012V81H-58.689V81.5H-56.6768V81H-54.6646V81.5H-52.6524V81H-50.6402V81.5H-48.628V81H-46.6158V81.5H-44.6037V81H-42.5915V81.5H-40.5793V81H-38.5671V81.5H-36.5549V81H-34.5427V81.5H-32.5305V81H-30.5183V81.5H-28.5061V81H-26.4939V81.5H-24.4817V81H-22.4695V81.5H-20.4573V81H-18.4452V81.5H-16.433V81H-14.4208V81.5H-12.4086V81H-10.3964V81.5H-8.38419V81H-6.372V81.5H-4.35981V81H-2.34762V81.5H-0.335434V81H1.67676V81.5H3.68895V81H5.70114V81.5H7.71334V81H9.72553V81.5H11.7377V81H13.7499V81.5H15.7621V81H17.7743V81.5H19.7865V81H21.7987V81.5H23.8109V81H25.8231V81.5H27.8353V81H29.8475V81.5H31.8596V81H33.8718V81.5H35.884V81H37.8962V81.5H39.9084V81H41.9206V81.5H43.9328V81H45.945V81.5H47.9572V81H49.9694V81.5H51.9816V81H53.9937V81.5H55C55.2344 81.5 55.4629 81.523 55.6836 81.5666L55.7806 81.0761C56.3054 81.18 56.7933 81.3864 57.2225 81.6737L56.9443 82.0892C57.3262 82.3449 57.6551 82.6738 57.9108 83.0557L58.3263 82.7775C58.6136 83.2067 58.82 83.6946 58.9239 84.2194L58.4334 84.3164C58.477 84.5371 58.5 84.7656 58.5 85V86H59V88H58.5V90H59V92H58.5V94H59V96H58.5V98H59V100H58.5V102H59V104H58.5V106H59V108H58.5V110H59V112H58.5V114H59V116H58.5V118H59V120H58.5V122H59V124H58.5V126H59V128H58.5V130H59V132H58.5V134H59V136H58.5V138H59V140H58.5V142H59V144H58.5V146H59V148H58.5V150H59V152H58.5V154H59V156H58.5V158H59V160H58.5V162H59V164H58.5V166H59V168H58.5V170H59V172H58.5V174H59V176H58.5V178H59V180H58.5V182H59V184H58.5V186H59V188H58.5V190H59V192H58.5V194H59V196H58.5V198H59V200H58.5V201C58.5 201.234 58.477 201.463 58.4334 201.684L58.9239 201.781C58.82 202.305 58.6136 202.793 58.3263 203.222L57.9108 202.944C57.6551 203.326 57.3262 203.655 56.9443 203.911L57.2225 204.326C56.7933 204.614 56.3054 204.82 55.7806 204.924L55.6836 204.433C55.4629 204.477 55.2344 204.5 55 204.5H53.9939V205H51.9817V204.5H49.9695V205H47.9573V204.5H45.9451V205H43.9329V204.5H41.9207V205H39.9085V204.5H37.8963V205H35.8841V204.5H33.8719V205H31.8598V204.5H29.8476V205H27.8354V204.5H25.8232V205H23.811V204.5H21.7988V205H19.7866V204.5H17.7744V205H15.7622V204.5H13.75V205H11.7378V204.5H9.7256V205H7.71341V204.5H5.70122V205H3.68902V204.5H1.67683V205H-0.335373V204.5H-2.34756V205H-4.35976V204.5H-6.37196V205H-8.38416V204.5H-10.3963V205H-12.4085V204.5H-14.4207V205H-16.4329V204.5H-18.4451V205H-20.4573V204.5H-22.4695V205H-24.4817V204.5H-26.4939V205H-28.5061V204.5H-30.5183V205H-32.5305V204.5H-34.5427V205H-36.5548V204.5H-38.567V205H-40.5792V204.5H-42.5914V205H-44.6036V204.5H-46.6158V205H-48.628V204.5H-50.6402V205H-52.6524V204.5H-54.6646V205H-56.6768V204.5H-58.689V205H-60.7011V204.5H-62.7133V205H-64.7255V204.5H-66.7377V205H-68.7499V204.5H-70.7621V205H-72.7743V204.5H-74.7865V205H-76.7987V204.5H-78.8109V205H-80.8231V204.5H-82.8353V205H-84.8475V204.5H-86.8596V205H-88.8718V204.5H-90.884V205H-92.8962V204.5H-94.9084V205H-96.9206V204.5H-98.9328V205H-100.945V204.5H-102.957V205H-104.969V204.5H-106.982V205H-108.994V204.5H-110Z" stroke="url(#paint2_linear_10058_453)" style="" stroke-dasharray="2 2"/>
<path d="M-110 73.5C-110.234 73.5 -110.463 73.477 -110.684 73.4334L-110.781 73.9239C-111.305 73.82 -111.793 73.6136 -112.222 73.3263L-111.944 72.9108C-112.326 72.6551 -112.655 72.3262 -112.911 71.9443L-113.326 72.2225C-113.614 71.7933 -113.82 71.3054 -113.924 70.7806L-113.433 70.6836C-113.477 70.4629 -113.5 70.2344 -113.5 70V69H-114V67H-113.5V65H-114V63H-113.5V61H-114V59H-113.5V57H-114V55H-113.5V53H-114V51H-113.5V49H-114V47H-113.5V45H-114V43H-113.5V41H-114V39H-113.5V37H-114V35H-113.5V33H-114V31H-113.5V29H-114V27H-113.5V25H-114V23H-113.5V21H-114V19H-113.5V17H-114V15H-113.5V13H-114V11H-113.5V9H-114V7H-113.5V5H-114V3H-113.5V0.999996H-114V-1H-113.5V-3H-114V-5H-113.5V-7H-114V-9H-113.5V-11H-114V-13H-113.5V-14C-113.5 -14.2344 -113.477 -14.4629 -113.433 -14.6836L-113.924 -14.7806C-113.82 -15.3054 -113.614 -15.7933 -113.326 -16.2225L-112.911 -15.9443C-112.655 -16.3262 -112.326 -16.6551 -111.944 -16.9108L-112.222 -17.3263C-111.793 -17.6136 -111.305 -17.82 -110.781 -17.9239L-110.684 -17.4334C-110.463 -17.477 -110.234 -17.5 -110 -17.5H-108.994V-18H-106.982V-17.5H-104.97V-18H-102.957V-17.5H-100.945V-18H-98.9329V-17.5H-96.9207V-18H-94.9085V-17.5H-92.8963V-18H-90.8841V-17.5H-88.872V-18H-86.8598V-17.5H-84.8476V-18H-82.8354V-17.5H-80.8232V-18H-78.811V-17.5H-76.7988V-18H-74.7866V-17.5H-72.7744V-18H-70.7622V-17.5H-68.75V-18H-66.7378V-17.5H-64.7256V-18H-62.7134V-17.5H-60.7012V-18H-58.689V-17.5H-56.6768V-18H-54.6646V-17.5H-52.6524V-18H-50.6402V-17.5H-48.628V-18H-46.6158V-17.5H-44.6037V-18H-42.5915V-17.5H-40.5793V-18H-38.5671V-17.5H-36.5549V-18H-34.5427V-17.5H-32.5305V-18H-30.5183V-17.5H-28.5061V-18H-26.4939V-17.5H-24.4817V-18H-22.4695V-17.5H-20.4573V-18H-18.4452V-17.5H-16.433V-18H-14.4208V-17.5H-12.4086V-18H-10.3964V-17.5H-8.38419V-18H-6.372V-17.5H-4.35981V-18H-2.34762V-17.5H-0.335434V-18H1.67676V-17.5H3.68895V-18H5.70114V-17.5H7.71334V-18H9.72553V-17.5H11.7377V-18H13.7499V-17.5H15.7621V-18H17.7743V-17.5H19.7865V-18H21.7987V-17.5H23.8109V-18H25.8231V-17.5H27.8353V-18H29.8475V-17.5H31.8596V-18H33.8718V-17.5H35.884V-18H37.8962V-17.5H39.9084V-18H41.9206V-17.5H43.9328V-18H45.945V-17.5H47.9572V-18H49.9694V-17.5H51.9816V-18H53.9937V-17.5H55C55.2344 -17.5 55.4629 -17.477 55.6836 -17.4334L55.7806 -17.9239C56.3054 -17.82 56.7933 -17.6136 57.2225 -17.3263L56.9443 -16.9108C57.3262 -16.6551 57.6551 -16.3262 57.9108 -15.9443L58.3263 -16.2225C58.6136 -15.7933 58.82 -15.3054 58.9239 -14.7806L58.4334 -14.6836C58.477 -14.4629 58.5 -14.2344 58.5 -14V-13H59V-11H58.5V-9H59V-7H58.5V-5H59V-3H58.5V-1H59V1H58.5V3H59V5H58.5V7H59V9H58.5V11H59V13H58.5V15H59V17H58.5V19H59V21H58.5V23H59V25H58.5V27H59V29H58.5V31H59V33H58.5V35H59V37H58.5V39H59V41H58.5V43H59V45H58.5V47H59V49H58.5V51H59V53H58.5V55H59V57H58.5V59H59V61H58.5V63H59V65H58.5V67H59V69H58.5V70C58.5 70.2344 58.477 70.4629 58.4334 70.6836L58.9239 70.7807C58.82 71.3054 58.6136 71.7933 58.3263 72.2225L57.9108 71.9443C57.6551 72.3262 57.3262 72.6551 56.9443 72.9108L57.2225 73.3263C56.7933 73.6136 56.3054 73.82 55.7806 73.9239L55.6836 73.4334C55.4629 73.477 55.2344 73.5 55 73.5H53.9939V74H51.9817V73.5H49.9695V74H47.9573V73.5H45.9451V74H43.9329V73.5H41.9207V74H39.9085V73.5H37.8963V74H35.8841V73.5H33.8719V74H31.8598V73.5H29.8476V74H27.8354V73.5H25.8232V74H23.811V73.5H21.7988V74H19.7866V73.5H17.7744V74H15.7622V73.5H13.75V74H11.7378V73.5H9.7256V74H7.71341V73.5H5.70122V74H3.68902V73.5H1.67683V74H-0.335373V73.5H-2.34756V74H-4.35976V73.5H-6.37196V74H-8.38416V73.5H-10.3963V74H-12.4085V73.5H-14.4207V74H-16.4329V73.5H-18.4451V74H-20.4573V73.5H-22.4695V74H-24.4817V73.5H-26.4939V74H-28.5061V73.5H-30.5183V74H-32.5305V73.5H-34.5427V74H-36.5548V73.5H-38.567V74H-40.5792V73.5H-42.5914V74H-44.6036V73.5H-46.6158V74H-48.628V73.5H-50.6402V74H-52.6524V73.5H-54.6646V74H-56.6768V73.5H-58.689V74H-60.7011V73.5H-62.7133V74H-64.7255V73.5H-66.7377V74H-68.7499V73.5H-70.7621V74H-72.7743V73.5H-74.7865V74H-76.7987V73.5H-78.8109V74H-80.8231V73.5H-82.8353V74H-84.8475V73.5H-86.8596V74H-88.8718V73.5H-90.884V74H-92.8962V73.5H-94.9084V74H-96.9206V73.5H-98.9328V74H-100.945V73.5H-102.957V74H-104.969V73.5H-106.982V74H-108.994V73.5H-110Z" stroke="url(#paint3_linear_10058_453)" style="" stroke-dasharray="2 2"/>
<path d="M70 254.5C69.7656 254.5 69.5371 254.477 69.3164 254.433L69.2194 254.924C68.6946 254.82 68.2067 254.614 67.7775 254.326L68.0557 253.911C67.6738 253.655 67.3449 253.326 67.0892 252.944L66.6737 253.222C66.3864 252.793 66.18 252.305 66.0761 251.781L66.5666 251.684C66.523 251.463 66.5 251.234 66.5 251V250H66V248H66.5V246H66V244H66.5V242H66V240H66.5V238H66V236H66.5V234H66V232H66.5V230H66V228H66.5V226H66V224H66.5V222H66V220H66.5V218H66V216H66.5V214H66V212H66.5V210H66V208H66.5V206H66V204H66.5V202H66V200H66.5V198H66V196H66.5V194H66V192H66.5V190H66V188H66.5V186H66V184H66.5V182H66V180H66.5V178H66V176H66.5V174H66V172H66.5V170H66V168H66.5V167C66.5 166.766 66.523 166.537 66.5666 166.316L66.0761 166.219C66.18 165.695 66.3864 165.207 66.6737 164.778L67.0892 165.056C67.3449 164.674 67.6738 164.345 68.0557 164.089L67.7775 163.674C68.2067 163.386 68.6946 163.18 69.2194 163.076L69.3164 163.567C69.5371 163.523 69.7656 163.5 70 163.5H71.0061V163H73.0183V163.5H75.0305V163H77.0427V163.5H79.0549V163H81.0671V163.5H83.0793V163H85.0915V163.5H87.1037V163H89.1159V163.5H91.128V163H93.1402V163.5H95.1524V163H97.1646V163.5H99.1768V163H101.189V163.5H103.201V163H105.213V163.5H107.226V163H109.238V163.5H111.25V163H113.262V163.5H115.274V163H117.287V163.5H119.299V163H121.311V163.5H123.323V163H125.335V163.5H127.348V163H129.36V163.5H131.372V163H133.384V163.5H135.396V163H137.409V163.5H139.421V163H141.433V163.5H143.445V163H145.457V163.5H147.47V163H149.482V163.5H151.494V163H153.506V163.5H155.518V163H157.53V163.5H159.543V163H161.555V163.5H163.567V163H165.579V163.5H167.591V163H169.604V163.5H171.616V163H173.628V163.5H175.64V163H177.652V163.5H179.665V163H181.677V163.5H183.689V163H185.701V163.5H187.713V163H189.726V163.5H191.738V163H193.75V163.5H195.762V163H197.774V163.5H199.786V163H201.799V163.5H203.811V163H205.823V163.5H207.835V163H209.847V163.5H211.86V163H213.872V163.5H215.884V163H217.896V163.5H219.908V163H221.921V163.5H223.933V163H225.945V163.5H227.957V163H229.969V163.5H231.982V163H233.994V163.5H235C235.234 163.5 235.463 163.523 235.684 163.567L235.781 163.076C236.305 163.18 236.793 163.386 237.222 163.674L236.944 164.089C237.326 164.345 237.655 164.674 237.911 165.056L238.326 164.778C238.614 165.207 238.82 165.695 238.924 166.219L238.433 166.316C238.477 166.537 238.5 166.766 238.5 167V168H239V170H238.5V172H239V174H238.5V176H239V178H238.5V180H239V182H238.5V184H239V186H238.5V188H239V190H238.5V192H239V194H238.5V196H239V198H238.5V200H239V202H238.5V204H239V206H238.5V208H239V210H238.5V212H239V214H238.5V216H239V218H238.5V220H239V222H238.5V224H239V226H238.5V228H239V230H238.5V232H239V234H238.5V236H239V238H238.5V240H239V242H238.5V244H239V246H238.5V248H239V250H238.5V251C238.5 251.234 238.477 251.463 238.433 251.684L238.924 251.781C238.82 252.305 238.614 252.793 238.326 253.222L237.911 252.944C237.655 253.326 237.326 253.655 236.944 253.911L237.222 254.326C236.793 254.614 236.305 254.82 235.781 254.924L235.684 254.433C235.463 254.477 235.234 254.5 235 254.5H233.994V255H231.982V254.5H229.97V255H227.957V254.5H225.945V255H223.933V254.5H221.921V255H219.909V254.5H217.896V255H215.884V254.5H213.872V255H211.86V254.5H209.848V255H207.835V254.5H205.823V255H203.811V254.5H201.799V255H199.787V254.5H197.774V255H195.762V254.5H193.75V255H191.738V254.5H189.726V255H187.713V254.5H185.701V255H183.689V254.5H181.677V255H179.665V254.5H177.652V255H175.64V254.5H173.628V255H171.616V254.5H169.604V255H167.591V254.5H165.579V255H163.567V254.5H161.555V255H159.543V254.5H157.53V255H155.518V254.5H153.506V255H151.494V254.5H149.482V255H147.47V254.5H145.457V255H143.445V254.5H141.433V255H139.421V254.5H137.409V255H135.396V254.5H133.384V255H131.372V254.5H129.36V255H127.348V254.5H125.335V255H123.323V254.5H121.311V255H119.299V254.5H117.287V255H115.274V254.5H113.262V255H111.25V254.5H109.238V255H107.226V254.5H105.214V255H103.201V254.5H101.189V255H99.1769V254.5H97.1647V255H95.1525V254.5H93.1404V255H91.1282V254.5H89.116V255H87.1038V254.5H85.0916V255H83.0794V254.5H81.0672V255H79.055V254.5H77.0428V255H75.0306V254.5H73.0184V255H71.0062V254.5H70Z" stroke="url(#paint4_linear_10058_453)" style="" stroke-dasharray="2 2"/>
<rect x="66.5" y="-7.5" width="172" height="91" rx="3.5" stroke="url(#paint5_linear_10058_453)" style="" stroke-dasharray="2 2"/>
<g filter="url(#filter1_dd_10058_453)">
<path d="M66 97C66 93.2288 66 91.3431 67.1716 90.1716C68.3431 89 70.2288 89 74 89H231C234.771 89 236.657 89 237.828 90.1716C239 91.3431 239 93.2288 239 97V148C239 151.771 239 153.657 237.828 154.828C236.657 156 234.771 156 231 156H74C70.2288 156 68.3431 156 67.1716 154.828C66 153.657 66 151.771 66 148V97Z" fill="#EDDEFF" fill-opacity="0.6" style="fill:#EDDEFF;fill:color(display-p3 0.9300 0.8725 1.0000);fill-opacity:0.6;"/>
<path d="M73.1124 155.999C72.4612 155.998 71.873 155.993 71.3401 155.977L71.3296 156.327C70.6524 156.307 70.0547 156.268 69.5254 156.195L69.5734 155.848C68.8938 155.754 68.3417 155.602 67.881 155.354L67.7154 155.663C67.4217 155.505 67.1598 155.312 66.9241 155.076C66.6884 154.84 66.495 154.578 66.3373 154.285L66.6457 154.119C66.3983 153.658 66.2457 153.106 66.1516 152.427L65.8049 152.475C65.7316 151.945 65.6933 151.348 65.6731 150.67L66.0229 150.66C66.0069 150.127 66.0021 149.539 66.0006 148.888L65.6506 148.888C65.6501 148.64 65.65 148.382 65.65 148.115C65.65 148.115 65.65 148.115 65.65 148.115C65.65 148.077 65.65 148.039 65.65 148V148V147.019H66V145.058H65.65V143.096H66V141.135H65.65V139.173H66V137.212H65.65V135.25H66V133.288H65.65V131.327H66V129.365H65.65V127.404H66V125.442H65.65V123.481H66V121.519H65.65V119.558H66V117.596H65.65V115.635H66V113.673H65.65V111.712H66V109.75H65.65V107.788H66V105.827H65.65V103.865H66V101.904H65.65V99.9423H66V97.9808H65.65V97V96.9998C65.65 96.6917 65.65 96.3957 65.6506 96.1116L66.0006 96.1124C66.0021 95.4612 66.0069 94.873 66.0229 94.3401L65.6731 94.3296C65.6933 93.6524 65.7316 93.0547 65.8049 92.5254L66.1516 92.5734C66.2457 91.8938 66.3983 91.3417 66.6457 90.881L66.3373 90.7154C66.495 90.4217 66.6884 90.1598 66.9241 89.9241C67.1598 89.6884 67.4217 89.495 67.7154 89.3373L67.881 89.6457C68.3417 89.3983 68.8938 89.2457 69.5734 89.1516L69.5254 88.8049C70.0547 88.7316 70.6524 88.6933 71.3296 88.6731L71.3401 89.0229C71.873 89.0069 72.4612 89.0021 73.1124 89.0006L73.1116 88.6506C73.3957 88.65 73.6917 88.65 73.9998 88.65H74H75.0064V89H77.0192V88.65H79.0321V89H81.0449V88.65H83.0577V89H85.0705V88.65H87.0833V89H89.0962V88.65H91.109V89H93.1218V88.65H95.1346V89H97.1474V88.65H99.1603V89H101.173V88.65H103.186V89H105.199V88.65H107.212V89H109.224V88.65H111.237V89H113.25V88.65H115.263V89H117.276V88.65H119.288V89H121.301V88.65H123.314V89H125.327V88.65H127.34V89H129.353V88.65H131.365V89H133.378V88.65H135.391V89H137.404V88.65H139.417V89H141.429V88.65H143.442V89H145.455V88.65H147.468V89H149.481V88.65H151.494V89H153.506V88.65H155.519V89H157.532V88.65H159.545V89H161.558V88.65H163.57V89H165.583V88.65H167.596V89H169.609V88.65H171.622V89H173.635V88.65H175.647V89H177.66V88.65H179.673V89H181.686V88.65H183.699V89H185.711V88.65H187.724V89H189.737V88.65H191.75V89H193.763V88.65H195.776V89H197.788V88.65H199.801V89H201.814V88.65H203.827V89H205.84V88.65H207.852V89H209.865V88.65H211.878V89H213.891V88.65H215.904V89H217.917V88.65H219.929V89H221.942V88.65H223.955V89H225.968V88.65H227.981V89H229.993V88.65H231H231C231.308 88.65 231.604 88.65 231.888 88.6506L231.888 89.0006C232.539 89.0021 233.127 89.0069 233.66 89.0229L233.67 88.6731C234.348 88.6933 234.945 88.7316 235.475 88.8049L235.427 89.1516C236.106 89.2457 236.658 89.3983 237.119 89.6457L237.285 89.3373C237.578 89.495 237.84 89.6884 238.076 89.9241C238.312 90.1598 238.505 90.4217 238.663 90.7154L238.354 90.881C238.602 91.3417 238.754 91.8938 238.848 92.5734L239.195 92.5254C239.268 93.0547 239.307 93.6524 239.327 94.3296L238.977 94.3401C238.993 94.873 238.998 95.4612 238.999 96.1124L239.349 96.1116C239.35 96.3958 239.35 96.6918 239.35 97V97.9808H239V99.9423H239.35V101.904H239V103.865H239.35V105.827H239V107.788H239.35V109.75H239V111.712H239.35V113.673H239V115.635H239.35V117.596H239V119.558H239.35V121.519H239V123.481H239.35V125.442H239V127.404H239.35V129.365H239V131.327H239.35V133.288H239V135.25H239.35V137.212H239V139.173H239.35V141.135H239V143.096H239.35V145.058H239V147.019H239.35V148C239.35 148.308 239.35 148.604 239.349 148.888L238.999 148.888C238.998 149.539 238.993 150.127 238.977 150.66L239.327 150.67C239.307 151.348 239.268 151.945 239.195 152.475L238.848 152.427C238.754 153.106 238.602 153.658 238.354 154.119L238.663 154.285C238.505 154.578 238.312 154.84 238.076 155.076C237.84 155.312 237.578 155.505 237.285 155.663L237.119 155.354C236.658 155.602 236.106 155.754 235.427 155.848L235.475 156.195C234.945 156.268 234.348 156.307 233.67 156.327L233.66 155.977C233.127 155.993 232.539 155.998 231.888 155.999L231.888 156.349C231.64 156.35 231.382 156.35 231.115 156.35C231.115 156.35 231.115 156.35 231.115 156.35C231.077 156.35 231.039 156.35 231 156.35H229.994V156H227.981V156.35H225.968V156H223.955V156.35H221.942V156H219.929V156.35H217.917V156H215.904V156.35H213.891V156H211.878V156.35H209.865V156H207.853V156.35H205.84V156H203.827V156.35H201.814V156H199.801V156.35H197.788V156H195.776V156.35H193.763V156H191.75V156.35H189.737V156H187.724V156.35H185.712V156H183.699V156.35H181.686V156H179.673V156.35H177.66V156H175.647V156.35H173.635V156H171.622V156.35H169.609V156H167.596V156.35H165.583V156H163.571V156.35H161.558V156H159.545V156.35H157.532V156H155.519V156.35H153.506V156H151.494V156.35H149.481V156H147.468V156.35H145.455V156H143.442V156.35H141.43V156H139.417V156.35H137.404V156H135.391V156.35H133.378V156H131.365V156.35H129.353V156H127.34V156.35H125.327V156H123.314V156.35H121.301V156H119.289V156.35H117.276V156H115.263V156.35H113.25V156H111.237V156.35H109.224V156H107.212V156.35H105.199V156H103.186V156.35H101.173V156H99.1603V156.35H97.1475V156H95.1347V156.35H93.1219V156H91.1091V156.35H89.0962V156H87.0834V156.35H85.0706V156H83.0578V156.35H81.045V156H79.0322V156.35H77.0193V156H75.0065V156.35H74C73.6918 156.35 73.3958 156.35 73.1116 156.349L73.1124 155.999Z" stroke="#8638E5" style="stroke:#8638E5;stroke:color(display-p3 0.5255 0.2196 0.8980);stroke-opacity:1;" stroke-width="0.7" stroke-dasharray="2 2"/>
</g>
<path d="M67.5 155.5L77 145" stroke="#8638E5" style="stroke:#8638E5;stroke:color(display-p3 0.5255 0.2196 0.8980);stroke-opacity:1;" stroke-width="0.7" stroke-dasharray="2 2"/>
<path d="M238.5 154.5L249 145" stroke="#8638E5" style="stroke:#8638E5;stroke:color(display-p3 0.5255 0.2196 0.8980);stroke-opacity:1;" stroke-width="0.7" stroke-dasharray="2 2"/>
<path d="M67.5 89.5L77 77" stroke="#8638E5" style="stroke:#8638E5;stroke:color(display-p3 0.5255 0.2196 0.8980);stroke-opacity:1;" stroke-width="0.7" stroke-dasharray="2 2"/>
</g>
<g filter="url(#filter2_dddddd_10058_453)">
<rect x="76" y="74" width="174" height="72" rx="4" fill="#F3F3F3" fill-opacity="0.9" style="fill:#F3F3F3;fill:color(display-p3 0.9548 0.9548 0.9548);fill-opacity:0.9;"/>
<rect x="76" y="74" width="174" height="72" rx="4" stroke="white" style="stroke:white;stroke-opacity:1;"/>
<path d="M115.667 104H106.333C105.597 104 105 104.597 105 105.333V114.667C105 115.403 105.597 116 106.333 116H115.667C116.403 116 117 115.403 117 114.667V105.333C117 104.597 116.403 104 115.667 104Z" stroke="#606060" style="stroke:#606060;stroke:color(display-p3 0.3773 0.3773 0.3773);stroke-opacity:1;" stroke-linecap="round" stroke-linejoin="round"/>
<path d="M109 109.333C109.736 109.333 110.333 108.736 110.333 108C110.333 107.264 109.736 106.667 109 106.667C108.264 106.667 107.667 107.264 107.667 108C107.667 108.736 108.264 109.333 109 109.333Z" stroke="#606060" style="stroke:#606060;stroke:color(display-p3 0.3773 0.3773 0.3773);stroke-opacity:1;" stroke-linecap="round" stroke-linejoin="round"/>
<path d="M117 112L114.943 109.943C114.693 109.693 114.354 109.552 114 109.552C113.646 109.552 113.307 109.693 113.057 109.943L107 116" stroke="#606060" style="stroke:#606060;stroke:color(display-p3 0.3773 0.3773 0.3773);stroke-opacity:1;" stroke-linecap="round" stroke-linejoin="round"/>
<rect x="81.25" y="79.25" width="57.5" height="61.5" rx="1.75" stroke="#D0D0D0" style="stroke:#D0D0D0;stroke:color(display-p3 0.8151 0.8151 0.8151);stroke-opacity:1;" stroke-width="0.5"/>
<rect x="157" y="89" width="46" height="3" rx="1.5" fill="#606060" fill-opacity="0.9" style="fill:#606060;fill:color(display-p3 0.3765 0.3765 0.3765);fill-opacity:0.9;"/>
<rect x="157" y="98" width="75" height="2" rx="1" fill="#A6A6A6" fill-opacity="0.9" style="fill:#A6A6A6;fill:color(display-p3 0.6498 0.6498 0.6498);fill-opacity:0.9;"/>
<rect x="157" y="105" width="70" height="2" rx="1" fill="#A6A6A6" fill-opacity="0.9" style="fill:#A6A6A6;fill:color(display-p3 0.6498 0.6498 0.6498);fill-opacity:0.9;"/>
<rect x="157" y="112" width="70" height="2" rx="1" fill="#A6A6A6" fill-opacity="0.9" style="fill:#A6A6A6;fill:color(display-p3 0.6498 0.6498 0.6498);fill-opacity:0.9;"/>
<rect x="157" y="123" width="38" height="9" rx="4" fill="black" style="fill:black;fill-opacity:1;"/>
<rect x="157" y="121" width="38" height="11" rx="2" fill="#BABABA" style="fill:#BABABA;fill:color(display-p3 0.7280 0.7280 0.7280);fill-opacity:1;"/>
<rect x="164" y="126" width="24" height="1" rx="0.5" fill="white" style="fill:white;fill-opacity:1;"/>
</g>
</g>
<defs>
<filter id="filter0_dddddd_10058_453" x="143" y="5" width="379" height="314" filterUnits="userSpaceOnUse" color-interpolation-filters="sRGB">
<feFlood flood-opacity="0" result="BackgroundImageFix"/>
<feColorMatrix in="SourceAlpha" type="matrix" values="0 0 0 0 0 0 0 0 0 0 0 0 0 0 0 0 0 0 127 0" result="hardAlpha"/>
<feOffset dy="2.5182"/>
<feGaussianBlur stdDeviation="1.42514"/>
<feColorMatrix type="matrix" values="0 0 0 0 0 0 0 0 0 0 0 0 0 0 0 0 0 0 0.0253031 0"/>
<feBlend mode="normal" in2="BackgroundImageFix" result="effect1_dropShadow_10058_453"/>
<feColorMatrix in="SourceAlpha" type="matrix" values="0 0 0 0 0 0 0 0 0 0 0 0 0 0 0 0 0 0 127 0" result="hardAlpha"/>
<feOffset dy="6.05159"/>
<feGaussianBlur stdDeviation="3.4248"/>
<feColorMatrix type="matrix" values="0 0 0 0 0 0 0 0 0 0 0 0 0 0 0 0 0 0 0.0363503 0"/>
<feBlend mode="normal" in2="effect1_dropShadow_10058_453" result="effect2_dropShadow_10058_453"/>
<feColorMatrix in="SourceAlpha" type="matrix" values="0 0 0 0 0 0 0 0 0 0 0 0 0 0 0 0 0 0 127 0" result="hardAlpha"/>
<feOffset dy="11.3946"/>
<feGaussianBlur stdDeviation="6.4486"/>
<feColorMatrix type="matrix" values="0 0 0 0 0 0 0 0 0 0 0 0 0 0 0 0 0 0 0.045 0"/>
<feBlend mode="normal" in2="effect2_dropShadow_10058_453" result="effect3_dropShadow_10058_453"/>
<feColorMatrix in="SourceAlpha" type="matrix" values="0 0 0 0 0 0 0 0 0 0 0 0 0 0 0 0 0 0 127 0" result="hardAlpha"/>
<feOffset dy="20.326"/>
<feGaussianBlur stdDeviation="11.5032"/>
<feColorMatrix type="matrix" values="0 0 0 0 0 0 0 0 0 0 0 0 0 0 0 0 0 0 0.0536497 0"/>
<feBlend mode="normal" in2="effect3_dropShadow_10058_453" result="effect4_dropShadow_10058_453"/>
<feColorMatrix in="SourceAlpha" type="matrix" values="0 0 0 0 0 0 0 0 0 0 0 0 0 0 0 0 0 0 127 0" result="hardAlpha"/>
<feOffset dy="38.0176"/>
<feGaussianBlur stdDeviation="21.5155"/>
<feColorMatrix type="matrix" values="0 0 0 0 0 0 0 0 0 0 0 0 0 0 0 0 0 0 0.0646969 0"/>
<feBlend mode="normal" in2="effect4_dropShadow_10058_453" result="effect5_dropShadow_10058_453"/>
<feColorMatrix in="SourceAlpha" type="matrix" values="0 0 0 0 0 0 0 0 0 0 0 0 0 0 0 0 0 0 127 0" result="hardAlpha"/>
<feOffset dy="91"/>
<feGaussianBlur stdDeviation="51.5"/>
<feColorMatrix type="matrix" values="0 0 0 0 0 0 0 0 0 0 0 0 0 0 0 0 0 0 0.09 0"/>
<feBlend mode="normal" in2="effect5_dropShadow_10058_453" result="effect6_dropShadow_10058_453"/>
<feBlend mode="normal" in="SourceGraphic" in2="effect6_dropShadow_10058_453" result="shape"/>
</filter>
<filter id="filter1_dd_10058_453" x="52.4028" y="86.3" width="200.194" height="94.6917" filterUnits="userSpaceOnUse" color-interpolation-filters="sRGB">
<feFlood flood-opacity="0" result="BackgroundImageFix"/>
<feColorMatrix in="SourceAlpha" type="matrix" values="0 0 0 0 0 0 0 0 0 0 0 0 0 0 0 0 0 0 127 0" result="hardAlpha"/>
<feOffset dy="2.5182"/>
<feGaussianBlur stdDeviation="1.42514"/>
<feColorMatrix type="matrix" values="0 0 0 0 0 0 0 0 0 0 0 0 0 0 0 0 0 0 0.0253031 0"/>
<feBlend mode="normal" in2="BackgroundImageFix" result="effect1_dropShadow_10058_453"/>
<feColorMatrix in="SourceAlpha" type="matrix" values="0 0 0 0 0 0 0 0 0 0 0 0 0 0 0 0 0 0 127 0" result="hardAlpha"/>
<feOffset dy="11.3946"/>
<feGaussianBlur stdDeviation="6.4486"/>
<feColorMatrix type="matrix" values="0 0 0 0 0 0 0 0 0 0 0 0 0 0 0 0 0 0 0.045 0"/>
<feBlend mode="normal" in2="effect1_dropShadow_10058_453" result="effect2_dropShadow_10058_453"/>
<feBlend mode="normal" in="SourceGraphic" in2="effect2_dropShadow_10058_453" result="shape"/>
</filter>
<filter id="filter2_dddddd_10058_453" x="-27.5" y="61.5" width="381" height="279" filterUnits="userSpaceOnUse" color-interpolation-filters="sRGB">
<feFlood flood-opacity="0" result="BackgroundImageFix"/>
<feColorMatrix in="SourceAlpha" type="matrix" values="0 0 0 0 0 0 0 0 0 0 0 0 0 0 0 0 0 0 127 0" result="hardAlpha"/>
<feOffset dy="2.5182"/>
<feGaussianBlur stdDeviation="1.42514"/>
<feColorMatrix type="matrix" values="0 0 0 0 0 0 0 0 0 0 0 0 0 0 0 0 0 0 0.0253031 0"/>
<feBlend mode="normal" in2="BackgroundImageFix" result="effect1_dropShadow_10058_453"/>
<feColorMatrix in="SourceAlpha" type="matrix" values="0 0 0 0 0 0 0 0 0 0 0 0 0 0 0 0 0 0 127 0" result="hardAlpha"/>
<feOffset dy="6.05159"/>
<feGaussianBlur stdDeviation="3.4248"/>
<feColorMatrix type="matrix" values="0 0 0 0 0 0 0 0 0 0 0 0 0 0 0 0 0 0 0.0363503 0"/>
<feBlend mode="normal" in2="effect1_dropShadow_10058_453" result="effect2_dropShadow_10058_453"/>
<feColorMatrix in="SourceAlpha" type="matrix" values="0 0 0 0 0 0 0 0 0 0 0 0 0 0 0 0 0 0 127 0" result="hardAlpha"/>
<feOffset dy="11.3946"/>
<feGaussianBlur stdDeviation="6.4486"/>
<feColorMatrix type="matrix" values="0 0 0 0 0 0 0 0 0 0 0 0 0 0 0 0 0 0 0.045 0"/>
<feBlend mode="normal" in2="effect2_dropShadow_10058_453" result="effect3_dropShadow_10058_453"/>
<feColorMatrix in="SourceAlpha" type="matrix" values="0 0 0 0 0 0 0 0 0 0 0 0 0 0 0 0 0 0 127 0" result="hardAlpha"/>
<feOffset dy="20.326"/>
<feGaussianBlur stdDeviation="11.5032"/>
<feColorMatrix type="matrix" values="0 0 0 0 0 0 0 0 0 0 0 0 0 0 0 0 0 0 0.0536497 0"/>
<feBlend mode="normal" in2="effect3_dropShadow_10058_453" result="effect4_dropShadow_10058_453"/>
<feColorMatrix in="SourceAlpha" type="matrix" values="0 0 0 0 0 0 0 0 0 0 0 0 0 0 0 0 0 0 127 0" result="hardAlpha"/>
<feOffset dy="38.0176"/>
<feGaussianBlur stdDeviation="21.5155"/>
<feColorMatrix type="matrix" values="0 0 0 0 0 0 0 0 0 0 0 0 0 0 0 0 0 0 0.0646969 0"/>
<feBlend mode="normal" in2="effect4_dropShadow_10058_453" result="effect5_dropShadow_10058_453"/>
<feColorMatrix in="SourceAlpha" type="matrix" values="0 0 0 0 0 0 0 0 0 0 0 0 0 0 0 0 0 0 127 0" result="hardAlpha"/>
<feOffset dy="91"/>
<feGaussianBlur stdDeviation="51.5"/>
<feColorMatrix type="matrix" values="0 0 0 0 0 0 0 0 0 0 0 0 0 0 0 0 0 0 0.09 0"/>
<feBlend mode="normal" in2="effect5_dropShadow_10058_453" result="effect6_dropShadow_10058_453"/>
<feBlend mode="normal" in="SourceGraphic" in2="effect6_dropShadow_10058_453" result="shape"/>
</filter>
<linearGradient id="paint0_linear_10058_453" x1="332" y1="33" x2="332.125" y2="91.4997" gradientUnits="userSpaceOnUse">
<stop stop-color="#C8C8C8" stop-opacity="0" style="stop-color:none;stop-opacity:0;"/>
<stop offset="1" stop-color="#C8C8C8" style="stop-color:#C8C8C8;stop-color:color(display-p3 0.7843 0.7843 0.7843);stop-opacity:1;"/>
</linearGradient>
<linearGradient id="paint1_linear_10058_453" x1="332" y1="212.5" x2="332" y2="148.5" gradientUnits="userSpaceOnUse">
<stop stop-color="#C8C8C8" stop-opacity="0" style="stop-color:none;stop-opacity:0;"/>
<stop offset="1" stop-color="#C8C8C8" style="stop-color:#C8C8C8;stop-color:color(display-p3 0.7843 0.7843 0.7843);stop-opacity:1;"/>
</linearGradient>
<linearGradient id="paint2_linear_10058_453" x1="-28" y1="197" x2="-28" y2="134" gradientUnits="userSpaceOnUse">
<stop stop-color="#C8C8C8" stop-opacity="0" style="stop-color:none;stop-opacity:0;"/>
<stop offset="1" stop-color="#C8C8C8" style="stop-color:#C8C8C8;stop-color:color(display-p3 0.7843 0.7843 0.7843);stop-opacity:1;"/>
</linearGradient>
<linearGradient id="paint3_linear_10058_453" x1="-28" y1="-1.5" x2="-27.5" y2="74" gradientUnits="userSpaceOnUse">
<stop stop-color="#C8C8C8" stop-opacity="0" style="stop-color:none;stop-opacity:0;"/>
<stop offset="1" stop-color="#C8C8C8" style="stop-color:#C8C8C8;stop-color:color(display-p3 0.7843 0.7843 0.7843);stop-opacity:1;"/>
</linearGradient>
<linearGradient id="paint4_linear_10058_453" x1="152" y1="201" x2="152" y2="163" gradientUnits="userSpaceOnUse">
<stop stop-color="#C8C8C8" stop-opacity="0" style="stop-color:none;stop-opacity:0;"/>
<stop offset="1" stop-color="#C8C8C8" style="stop-color:#C8C8C8;stop-color:color(display-p3 0.7843 0.7843 0.7843);stop-opacity:1;"/>
</linearGradient>
<linearGradient id="paint5_linear_10058_453" x1="152" y1="8.5" x2="152.5" y2="84" gradientUnits="userSpaceOnUse">
<stop stop-color="#C8C8C8" stop-opacity="0" style="stop-color:none;stop-opacity:0;"/>
<stop offset="1" stop-color="#C8C8C8" style="stop-color:#C8C8C8;stop-color:color(display-p3 0.7843 0.7843 0.7843);stop-opacity:1;"/>
</linearGradient>
<clipPath id="clip0_10058_453">
<rect width="327" height="220" fill="white" style="fill:white;fill-opacity:1;"/>
</clipPath>
<clipPath id="clip1_10058_453">
<rect width="300" height="185" fill="white" style="fill:white;fill-opacity:1;" transform="translate(13 20)"/>
</clipPath>
</defs>
</svg>
