<svg width="42" height="42" viewBox="0 0 42 42" fill="none" xmlns="http://www.w3.org/2000/svg">
<g clip-path="url(#clip0_8919_75)">
<path fill-rule="evenodd" clip-rule="evenodd" d="M21 42C32.598 42 42 32.598 42 21C42 9.40202 32.598 0 21 0C9.40202 0 0 9.40202 0 21C0 32.598 9.40202 42 21 42ZM31.0607 17.0607C31.6464 16.4749 31.6464 15.5251 31.0607 14.9393C30.4749 14.3536 29.5251 14.3536 28.9393 14.9393L19 24.8787L15.0607 20.9393C14.4749 20.3536 13.5251 20.3536 12.9393 20.9393C12.3536 21.5251 12.3536 22.4749 12.9393 23.0607L17.9393 28.0607C18.5251 28.6464 19.4749 28.6464 20.0607 28.0607L31.0607 17.0607Z" fill="#22C55E" style="fill:#22C55E;fill:color(display-p3 0.1333 0.7725 0.3686);fill-opacity:1;"/>
</g>
<defs>
<clipPath id="clip0_8919_75">
<rect width="42" height="42" fill="white" style="fill:white;fill-opacity:1;"/>
</clipPath>
</defs>
</svg>
