<svg width="300" height="185" viewBox="0 0 300 185" fill="none" xmlns="http://www.w3.org/2000/svg">
<g clip-path="url(#clip0_347_34387)">
<rect width="300" height="185" rx="8" fill="#F8F8F8"/>
<g clip-path="url(#clip1_347_34387)">
<rect x="121.5" y="18" width="0.5" height="149" fill="url(#paint0_linear_347_34387)"/>
<rect x="178" y="18" width="0.5" height="149" fill="url(#paint1_linear_347_34387)"/>
<rect x="36" y="78.5" width="228" height="0.5" fill="url(#paint2_linear_347_34387)"/>
<rect x="36" y="106" width="228" height="0.5" fill="url(#paint3_linear_347_34387)"/>
<g clip-path="url(#clip2_347_34387)">
<rect x="206.5" y="123.5" width="55" height="26" rx="13" stroke="black" stroke-opacity="0.4" stroke-dasharray="1 2"/>
<rect x="210.5" y="127.5" width="18" height="18" rx="9" stroke="black" stroke-opacity="0.4" stroke-dasharray="1 2"/>
<rect x="206.5" y="79.5" width="55" height="26" rx="13" stroke="black" stroke-opacity="0.4" stroke-dasharray="1 2"/>
<rect x="239.5" y="83.5" width="18" height="18" rx="9" stroke="black" stroke-opacity="0.4" stroke-dasharray="1 2"/>
<rect x="206.5" y="35.5" width="55" height="26" rx="13" stroke="black" stroke-opacity="0.4" stroke-dasharray="1 2"/>
<rect x="210.5" y="39.5" width="18" height="18" rx="9" stroke="black" stroke-opacity="0.4" stroke-dasharray="1 2"/>
<rect x="122.5" y="123.5" width="55" height="26" rx="13" stroke="black" stroke-opacity="0.4" stroke-dasharray="1 2"/>
<rect x="126.5" y="127.5" width="18" height="18" rx="9" stroke="black" stroke-opacity="0.4" stroke-dasharray="1 2"/>
<rect x="122.5" y="35.5" width="55" height="26" rx="13" stroke="black" stroke-opacity="0.4" stroke-dasharray="1 2"/>
<rect x="155.5" y="39.5" width="18" height="18" rx="9" stroke="black" stroke-opacity="0.4" stroke-dasharray="1 2"/>
<rect x="38.5" y="123.5" width="55" height="26" rx="13" stroke="black" stroke-opacity="0.4" stroke-dasharray="1 2"/>
<rect x="42.5" y="127.5" width="18" height="18" rx="9" stroke="black" stroke-opacity="0.4" stroke-dasharray="1 2"/>
<rect x="38.5" y="79.5" width="55" height="26" rx="13" stroke="black" stroke-opacity="0.4" stroke-dasharray="1 2"/>
<rect x="71.5" y="83.5" width="18" height="18" rx="9" stroke="black" stroke-opacity="0.4" stroke-dasharray="1 2"/>
<rect x="38.5" y="35.5" width="55" height="26" rx="13" stroke="black" stroke-opacity="0.4" stroke-dasharray="1 2"/>
<rect x="42.5" y="39.5" width="18" height="18" rx="9" stroke="black" stroke-opacity="0.4" stroke-dasharray="1 2"/>
<mask id="mask0_347_34387" style="mask-type:alpha" maskUnits="userSpaceOnUse" x="220" y="0" width="80" height="185">
<rect x="220" width="80" height="185" fill="url(#paint4_linear_347_34387)"/>
</mask>
<g mask="url(#mask0_347_34387)">
<rect x="220" width="80" height="185" fill="#F8F8F8"/>
</g>
<mask id="mask1_347_34387" style="mask-type:alpha" maskUnits="userSpaceOnUse" x="0" y="0" width="80" height="185">
<rect width="80" height="185" fill="url(#paint5_linear_347_34387)"/>
</mask>
<g mask="url(#mask1_347_34387)">
<rect width="80" height="185" fill="#F8F8F8"/>
</g>
</g>
<rect x="122" y="79" width="56" height="27" rx="13.5" fill="black"/>
<rect x="155" y="83" width="19" height="19" rx="9.5" fill="white"/>
</g>
</g>
<defs>
<linearGradient id="paint0_linear_347_34387" x1="121.75" y1="18" x2="121.75" y2="167" gradientUnits="userSpaceOnUse">
<stop stop-color="#D1D1D1" stop-opacity="0"/>
<stop offset="0.2" stop-color="#D1D1D1"/>
<stop offset="0.8" stop-color="#D1D1D1"/>
<stop offset="1" stop-color="#D1D1D1" stop-opacity="0"/>
</linearGradient>
<linearGradient id="paint1_linear_347_34387" x1="178.25" y1="18" x2="178.25" y2="167" gradientUnits="userSpaceOnUse">
<stop stop-color="#D1D1D1" stop-opacity="0"/>
<stop offset="0.2" stop-color="#D1D1D1"/>
<stop offset="0.8" stop-color="#D1D1D1"/>
<stop offset="1" stop-color="#D1D1D1" stop-opacity="0"/>
</linearGradient>
<linearGradient id="paint2_linear_347_34387" x1="36" y1="78.75" x2="264" y2="78.75" gradientUnits="userSpaceOnUse">
<stop stop-color="#D1D1D1" stop-opacity="0"/>
<stop offset="0.2" stop-color="#D1D1D1"/>
<stop offset="0.8" stop-color="#D1D1D1"/>
<stop offset="1" stop-color="#D1D1D1" stop-opacity="0"/>
</linearGradient>
<linearGradient id="paint3_linear_347_34387" x1="36" y1="106.25" x2="264" y2="106.25" gradientUnits="userSpaceOnUse">
<stop stop-color="#D1D1D1" stop-opacity="0"/>
<stop offset="0.2" stop-color="#D1D1D1"/>
<stop offset="0.8" stop-color="#D1D1D1"/>
<stop offset="1" stop-color="#D1D1D1" stop-opacity="0"/>
</linearGradient>
<linearGradient id="paint4_linear_347_34387" x1="220" y1="92.5" x2="300" y2="92.5" gradientUnits="userSpaceOnUse">
<stop stop-color="white" stop-opacity="0"/>
<stop offset="0.57" stop-color="white"/>
<stop offset="1" stop-color="white"/>
</linearGradient>
<linearGradient id="paint5_linear_347_34387" x1="0" y1="92.5" x2="80" y2="92.5" gradientUnits="userSpaceOnUse">
<stop stop-color="white"/>
<stop offset="0.425975" stop-color="white"/>
<stop offset="1" stop-color="white" stop-opacity="0"/>
</linearGradient>
<clipPath id="clip0_347_34387">
<rect width="300" height="185" rx="8" fill="white"/>
</clipPath>
<clipPath id="clip1_347_34387">
<rect width="300" height="185" fill="white"/>
</clipPath>
<clipPath id="clip2_347_34387">
<rect width="300" height="185" fill="white"/>
</clipPath>
</defs>
</svg>
