<svg width="42" height="42" viewBox="0 0 42 42" fill="none" xmlns="http://www.w3.org/2000/svg">
<g clip-path="url(#clip0_8919_84)">
<path fill-rule="evenodd" clip-rule="evenodd" d="M42 21C42 32.598 32.598 42 21 42C9.40202 42 0 32.598 0 21C0 9.40202 9.40202 0 21 0C32.598 0 42 9.40202 42 21ZM28.0607 13.9393C28.6464 14.5251 28.6464 15.4749 28.0607 16.0607L23.1213 21L28.0607 25.9393C28.6464 26.5251 28.6464 27.4749 28.0607 28.0607C27.4749 28.6464 26.5251 28.6464 25.9393 28.0607L21 23.1213L16.0607 28.0607C15.4749 28.6464 14.5251 28.6464 13.9393 28.0607C13.3536 27.4749 13.3536 26.5251 13.9393 25.9393L18.8787 21L13.9393 16.0607C13.3536 15.4749 13.3536 14.5251 13.9393 13.9393C14.5251 13.3536 15.4749 13.3536 16.0607 13.9393L21 18.8787L25.9393 13.9393C26.5251 13.3536 27.4749 13.3536 28.0607 13.9393Z" fill="#EF4444" style="fill:#EF4444;fill:color(display-p3 0.9373 0.2667 0.2667);fill-opacity:1;"/>
</g>
<defs>
<clipPath id="clip0_8919_84">
<rect width="42" height="42" fill="white" style="fill:white;fill-opacity:1;"/>
</clipPath>
</defs>
</svg>
