<svg width="294" height="49" viewBox="0 0 294 49" fill="none" xmlns="http://www.w3.org/2000/svg">
<g filter="url(#filter0_i_7830_99242)">
<ellipse cx="10.6786" cy="11.1505" rx="10.6786" ry="11.1505" transform="matrix(-1 0 0 1 47.7925 0)" fill="#0372E1" style="fill:#0372E1;fill:color(display-p3 0.0118 0.4471 0.8824);fill-opacity:1;"/>
</g>
<g filter="url(#filter1_i_7830_99242)">
<path d="M47.7925 42.1087C47.7925 45.6278 44.9398 48.4805 41.4208 48.4805H29.9949C28.029 48.4805 26.4353 46.8868 26.4353 44.9209V32.2815C26.4353 28.9114 29.1673 26.1794 32.5374 26.1794C40.9625 26.1794 47.7925 33.0094 47.7925 41.4345V42.1087Z" fill="#D496F1" style="fill:#D496F1;fill:color(display-p3 0.8314 0.5882 0.9451);fill-opacity:1;"/>
</g>
<path fill-rule="evenodd" clip-rule="evenodd" d="M4.15266 0C2.09991 0 0.435825 1.66408 0.435825 3.71684V4.50341C0.435825 13.709 7.42481 21.2821 16.3861 22.2063C16.5638 23.5361 16.5325 24.908 16.2932 26.2088C16.0951 26.1894 15.8942 26.1795 15.6909 26.1795C7.26577 26.1795 0.435825 33.0094 0.435825 41.4346V42.1088C0.435825 45.6278 3.28854 48.4805 6.80755 48.4805H18.2334C20.1993 48.4805 21.793 46.8868 21.793 44.921V32.2815L21.7929 32.2592V18.7586L21.793 18.7415V6.10204C21.793 4.14242 21.793 3.16261 21.4571 2.39554C21.0538 1.47453 20.3184 0.739185 19.3974 0.33589C18.6304 0 17.6505 0 15.6909 0H4.15266Z" fill="black" style="fill:black;fill-opacity:1;"/>
<path d="M293.45 10.443C289.964 10.1318 287.662 11.1899 287.662 14.7997H293.45V23.7621H287.662V45.919H278.326V23.7621H274.156V14.7997H278.326C278.326 6.08633 283.118 0.8583 293.45 1.48068V10.443Z" fill="black" style="fill:black;fill-opacity:1;"/>
<path d="M270.929 10.443C267.443 10.1318 265.141 11.1899 265.141 14.7997H270.929V23.7621H265.141V45.919H255.805V23.7621H251.635V14.7997H255.805C255.805 6.08633 260.597 0.8583 270.929 1.48068V10.443Z" fill="black" style="fill:black;fill-opacity:1;"/>
<path d="M233.574 46.7902C224.425 46.7902 217.081 39.6327 217.081 30.3592C217.081 21.0857 224.425 13.9282 233.574 13.9282C242.723 13.9282 250.067 21.0857 250.067 30.3592C250.067 39.6327 242.723 46.7902 233.574 46.7902ZM233.574 37.7033C237.619 37.7033 240.731 34.7781 240.731 30.3592C240.731 25.9403 237.619 23.015 233.574 23.015C229.528 23.015 226.416 25.9403 226.416 30.3592C226.416 34.7781 229.528 37.7033 233.574 37.7033Z" fill="black" style="fill:black;fill-opacity:1;"/>
<path d="M203.073 2.35229H212.409V45.9193H203.073V42.9941C201.019 45.3591 197.969 46.7906 193.799 46.7906C185.646 46.7906 178.924 39.6332 178.924 30.3596C178.924 21.0861 185.646 13.9287 193.799 13.9287C197.969 13.9287 201.019 15.3601 203.073 17.7252V2.35229ZM195.666 37.9527C199.961 37.9527 203.073 35.0275 203.073 30.3596C203.073 25.6917 199.961 22.7665 195.666 22.7665C191.372 22.7665 188.26 25.6917 188.26 30.3596C188.26 35.0275 191.372 37.9527 195.666 37.9527Z" fill="black" style="fill:black;fill-opacity:1;"/>
<path d="M163.054 13.9282C169.34 13.9282 174.692 18.4094 174.692 26.8116V45.9188H165.357V28.1808C165.357 24.3221 162.929 22.5171 159.942 22.5171C156.519 22.5171 154.154 24.5088 154.154 28.9277V45.9188H144.818V14.7996H154.154V17.7248C155.834 15.4219 158.946 13.9282 163.054 13.9282Z" fill="black" style="fill:black;fill-opacity:1;"/>
<path d="M129.255 14.7996H138.591V45.9188H129.255V42.9936C127.201 45.3587 124.151 46.7902 119.981 46.7902C111.828 46.7902 105.106 39.6327 105.106 30.3592C105.106 21.0857 111.828 13.9282 119.981 13.9282C124.151 13.9282 127.201 15.3597 129.255 17.7248V14.7996ZM121.849 37.9523C126.143 37.9523 129.255 35.0271 129.255 30.3592C129.255 25.6913 126.143 22.7661 121.849 22.7661C117.554 22.7661 114.442 25.6913 114.442 30.3592C114.442 35.0271 117.554 37.9523 121.849 37.9523Z" fill="black" style="fill:black;fill-opacity:1;"/>
<path d="M89.2359 13.9287C95.522 13.9287 100.874 18.4098 100.874 26.812V45.9193H91.5387V28.1813C91.5387 24.3225 89.1114 22.5176 86.124 22.5176C82.7008 22.5176 80.3358 24.5092 80.3358 28.9281V45.9193H71V2.35229H80.3358V17.7252C82.0162 15.4224 85.1281 13.9287 89.2359 13.9287Z" fill="black" style="fill:black;fill-opacity:1;"/>
<defs>
<filter id="filter0_i_7830_99242" x="26.4355" y="0" width="21.3569" height="23.301" filterUnits="userSpaceOnUse" color-interpolation-filters="sRGB">
<feFlood flood-opacity="0" result="BackgroundImageFix"/>
<feBlend mode="normal" in="SourceGraphic" in2="BackgroundImageFix" result="shape"/>
<feColorMatrix in="SourceAlpha" type="matrix" values="0 0 0 0 0 0 0 0 0 0 0 0 0 0 0 0 0 0 127 0" result="hardAlpha"/>
<feOffset dy="1"/>
<feGaussianBlur stdDeviation="1.5"/>
<feComposite in2="hardAlpha" operator="arithmetic" k2="-1" k3="1"/>
<feColorMatrix type="matrix" values="0 0 0 0 0 0 0 0 0 0 0 0 0 0 0 0 0 0 0.25 0"/>
<feBlend mode="normal" in2="shape" result="effect1_innerShadow_7830_99242"/>
</filter>
<filter id="filter1_i_7830_99242" x="26.4355" y="26.1794" width="21.3569" height="23.301" filterUnits="userSpaceOnUse" color-interpolation-filters="sRGB">
<feFlood flood-opacity="0" result="BackgroundImageFix"/>
<feBlend mode="normal" in="SourceGraphic" in2="BackgroundImageFix" result="shape"/>
<feColorMatrix in="SourceAlpha" type="matrix" values="0 0 0 0 0 0 0 0 0 0 0 0 0 0 0 0 0 0 127 0" result="hardAlpha"/>
<feOffset dy="1"/>
<feGaussianBlur stdDeviation="2"/>
<feComposite in2="hardAlpha" operator="arithmetic" k2="-1" k3="1"/>
<feColorMatrix type="matrix" values="0 0 0 0 0 0 0 0 0 0 0 0 0 0 0 0 0 0 0.15 0"/>
<feBlend mode="normal" in2="shape" result="effect1_innerShadow_7830_99242"/>
</filter>
</defs>
</svg>
