<svg width="220" height="47" viewBox="0 0 220 47" fill="none" xmlns="http://www.w3.org/2000/svg">
<path d="M18.1972 13.4106C14.0982 13.4106 10.9928 14.9374 9.31597 17.2912V1.57792H0V46.1094H9.31597V28.7421C9.31597 24.2253 11.676 22.1896 15.0919 22.1896C18.073 22.1896 20.4951 24.0345 20.4951 27.9787V46.1094H29.8111V26.5792C29.8111 17.9909 24.4699 13.4106 18.1972 13.4106Z" fill="#3A3535"/>
<path d="M58.7532 14.3012V17.2912C56.7037 14.8737 53.6605 13.4106 49.4993 13.4106C41.3634 13.4106 34.6559 20.7264 34.6559 30.2053C34.6559 39.6841 41.3634 47 49.4993 47C53.6605 47 56.7037 45.5368 58.7532 43.1194V46.1094H68.0692V14.3012H58.7532ZM51.3625 37.9665C47.0772 37.9665 43.9719 34.9765 43.9719 30.2053C43.9719 25.4341 47.0772 22.4441 51.3625 22.4441C55.6479 22.4441 58.7532 25.4341 58.7532 30.2053C58.7532 34.9765 55.6479 37.9665 51.3625 37.9665Z" fill="#3A3535"/>
<path d="M93.101 13.4106C89.002 13.4106 85.8966 14.9374 84.2198 17.2912V14.3012H74.9038V46.1094H84.2198V28.7421C84.2198 24.2253 86.5798 22.1896 89.9957 22.1896C92.9768 22.1896 95.3989 24.0345 95.3989 27.9787V46.1094H104.715V26.5792C104.715 17.9909 99.3737 13.4106 93.101 13.4106Z" fill="#3A3535"/>
<path d="M133.657 1.57792V17.2912C131.607 14.8737 128.564 13.4106 124.403 13.4106C116.267 13.4106 109.56 20.7264 109.56 30.2053C109.56 39.6841 116.267 47 124.403 47C128.564 47 131.607 45.5368 133.657 43.1194V46.1094H142.973V1.57792H133.657ZM126.266 37.9665C121.981 37.9665 118.876 34.9765 118.876 30.2053C118.876 25.4341 121.981 22.4441 126.266 22.4441C130.552 22.4441 133.657 25.4341 133.657 30.2053C133.657 34.9765 130.552 37.9665 126.266 37.9665Z" fill="#3A3535"/>
<path d="M164.713 47C173.843 47 181.171 39.6841 181.171 30.2053C181.171 20.7264 173.843 13.4106 164.713 13.4106C155.583 13.4106 148.255 20.7264 148.255 30.2053C148.255 39.6841 155.583 47 164.713 47ZM164.713 37.712C160.676 37.712 157.571 34.722 157.571 30.2053C157.571 25.6885 160.676 22.6986 164.713 22.6986C168.75 22.6986 171.855 25.6885 171.855 30.2053C171.855 34.722 168.75 37.712 164.713 37.712Z" fill="#3A3535"/>
<path d="M220 9.21188V0.0511275C209.69 -0.585035 204.908 4.75874 204.908 13.665V14.3012H196.834C196.834 10.6114 199.132 9.52996 202.61 9.84805V0.68729C192.301 0.0511275 187.518 5.3949 187.518 14.3012H183.357V23.4619H187.518V46.1094H196.834V23.4619H204.908V46.1094H214.224V23.4619H220V14.3012H214.224V13.665C214.224 9.97528 216.522 8.8938 220 9.21188Z" fill="#3A3535"/>
</svg>
