<svg width="472" height="601" viewBox="0 0 472 601" fill="none" xmlns="http://www.w3.org/2000/svg">
<g clip-path="url(#clip0_801_1051)">
<path d="M447.91 600.3H64.3201C51.2201 600.3 40.5601 589.64 40.5601 576.54V23.76C40.5601 10.66 51.2201 0 64.3201 0H382.51L471.66 89.15V576.54C471.66 589.64 461 600.3 447.9 600.3H447.91Z" fill="#F5F5F5"/>
<path d="M0 226.55L46.35 267.7L49.45 226.55H0Z" fill="#1DA890"/>
<path d="M447.91 600.3H64.3201C51.2201 600.3 40.5601 589.64 40.5601 576.54V23.76C40.5601 10.66 51.2201 0 64.3201 0H382.51L471.66 89.15V576.54C471.66 589.64 461 600.3 447.9 600.3H447.91ZM64.3201 11.59C57.6101 11.59 52.1501 17.05 52.1501 23.76V576.54C52.1501 583.25 57.6101 588.71 64.3201 588.71H447.91C454.62 588.71 460.08 583.25 460.08 576.54V93.95L377.71 11.59H64.3201Z" fill="#C9C9C9"/>
<path d="M381.27 66.0599C381.27 80.7799 393.2 92.71 407.92 92.71H467.02L381.27 6.94995V66.05V66.0599Z" fill="#C9C9C9"/>
<path d="M338.39 84.6H0V226.56H338.39V84.6Z" fill="#2ACD70"/>
<path d="M91.99 175.93L101.24 169.08C103.46 173.15 106.61 175.09 109.66 175.09C114.56 175.09 117.15 172.59 117.15 164.54V125.41H130.75V165.65C130.75 177.31 124.74 186.84 111.41 186.84C102.25 186.84 96.14 183.23 91.98 175.92L91.99 175.93Z" fill="#F5F5F5"/>
<path d="M144.72 125.42H165.44C178.67 125.42 189.4 130.23 189.4 144.85C189.4 159.47 178.58 165.3 165.81 165.3H158.32V185.75H144.72V125.43V125.42ZM164.98 154.47C172.47 154.47 176.08 151.14 176.08 144.85C176.08 138.56 172.01 136.25 164.61 136.25H158.32V154.48H164.98V154.47Z" fill="#F5F5F5"/>
<path d="M197 155.95C197 135.97 210.32 124.31 226.42 124.31C235.12 124.31 241.41 128.1 245.39 132.17L238.27 140.87C235.22 138.19 232.07 136.06 226.89 136.06C217.55 136.06 210.98 143.37 210.98 155.49C210.98 167.61 216.62 175.1 227.91 175.1C230.41 175.1 232.91 174.45 234.39 173.25V162.89H224.4V151.79H246.42V179.55C242.26 183.62 234.95 186.86 226.53 186.86C209.97 186.86 197.02 176.22 197.02 155.96L197 155.95Z" fill="#F5F5F5"/>
<path d="M381.27 519.18H130.95V301.31H381.27V519.18ZM142.54 507.59H369.68V312.9H142.54V507.59Z" fill="#C9C9C9"/>
<path d="M136.75 513.38L212.07 438.06L236.41 462.39L298.99 399.81L375.48 513.38H136.75Z" fill="#C9C9C9"/>
<path d="M215.179 373.08C217.062 364.322 211.488 355.696 202.73 353.814C193.972 351.931 185.346 357.505 183.463 366.263C181.581 375.021 187.155 383.647 195.913 385.529C204.671 387.412 213.297 381.838 215.179 373.08Z" fill="#C9C9C9"/>
</g>
<defs>
<clipPath id="clip0_801_1051">
<rect width="471.66" height="600.3" fill="white"/>
</clipPath>
</defs>
</svg>
