<?xml version="1.0" encoding="UTF-8"?>
<svg width="215px" height="171px" viewBox="0 0 215 171" version="1.1" xmlns="http://www.w3.org/2000/svg" xmlns:xlink="http://www.w3.org/1999/xlink">
    <title>Group 3@2x</title>
    <defs>
        <path d="M3,0 L92.0168019,0 C93.6736561,3.24835449e-15 95.0168019,1.34314575 95.0168019,3 L95.0168019,39.3832189 C95.0168019,41.0400731 96.3599476,42.3832189 98.0168019,42.3832189 L200,42.3832189 C201.656854,42.3832189 203,43.7263646 203,45.3832189 L203,156 C203,157.656854 201.656854,159 200,159 L3,159 C1.34314575,159 2.02906125e-16,157.656854 0,156 L0,3 C2.41183085e-16,1.34314575 1.34314575,7.48448398e-16 3,0 Z" id="path-1"></path>
        <filter x="-4.7%" y="-5.3%" width="109.4%" height="111.9%" filterUnits="objectBoundingBox" id="filter-2">
            <feOffset dx="0" dy="1" in="SourceAlpha" result="shadowOffsetOuter1"></feOffset>
            <feGaussianBlur stdDeviation="3" in="shadowOffsetOuter1" result="shadowBlurOuter1"></feGaussianBlur>
            <feColorMatrix values="0 0 0 0 0   0 0 0 0 0   0 0 0 0 0  0 0 0 0.052075366 0" type="matrix" in="shadowBlurOuter1"></feColorMatrix>
        </filter>
    </defs>
    <g id="Design" stroke="none" stroke-width="1" fill="none" fill-rule="evenodd">
        <g id="1.0-UI-Components" transform="translate(-1125.000000, -499.000000)">
            <g id="::-tabs" transform="translate(1074.000000, 434.000000)">
                <g id="Group-3" transform="translate(57.000000, 70.000000)">
                    <g id="::-list">
                        <g id="background">
                            <use fill="black" fill-opacity="1" filter="url(#filter-2)" xlink:href="#path-1"></use>
                            <use fill="#FFFFFF" fill-rule="evenodd" xlink:href="#path-1"></use>
                        </g>
                        <rect id="background" fill="#E8E8E8" x="101" y="0" width="102" height="36" rx="3"></rect>
                        <rect id="text" fill="#E8E8E8" x="18" y="110" width="137" height="6" rx="2"></rect>
                        <rect id="text" fill="#E8E8E8" x="18" y="95" width="171" height="6" rx="2"></rect>
                        <rect id="text" fill="#E8E8E8" x="18" y="80" width="171" height="6" rx="2"></rect>
                    </g>
                    <g id="::-dropdown">
                        <rect id="Rectangle" fill="#4574C7" x="18" y="20" width="58" height="6" rx="2"></rect>
                        <rect id="Rectangle" fill="#FFFFFF" x="114" y="17" width="72" height="6" rx="2"></rect>
                    </g>
                </g>
            </g>
        </g>
    </g>
</svg>