<svg width="222" height="107" viewBox="0 0 222 107" fill="none" xmlns="http://www.w3.org/2000/svg">
<g clip-path="url(#clip0_12_15)">
<path fill-rule="evenodd" clip-rule="evenodd" d="M68.3333 53.6717C78.1093 70.875 88.05 87.983 98.1423 105H74.8333C71.241 105 68.3333 102.075 68.3333 98.5V53.6717ZM80.6833 57.394C94.888 65.8527 136.436 90.5787 137.541 91.2157L115.172 104.129C114.171 104.701 113.049 105 111.918 105C109.539 105 107.424 103.709 106.289 101.75L80.6833 57.394V57.394ZM88.9167 1.871C87.92 1.29467 86.7977 1 85.6667 1C83.396 1 81.2207 2.20033 80.0377 4.25L64.871 30.5187C64.2947 31.5153 64 32.6377 64 33.7643C64 36.048 65.2047 38.219 67.25 39.3977C79.9727 46.7427 130.43 77.0977 143.153 84.447C146.264 86.2367 150.229 85.175 152.027 82.0637L167.194 55.795C167.77 54.7983 168 53.6803 168 52.5493C168 50.296 166.886 48.1077 164.819 46.916L88.9167 1.871V1.871ZM90 18.9617C94.784 18.9617 98.6667 22.8443 98.6667 27.6283C98.6667 32.4123 94.784 36.295 90 36.295C85.216 36.295 81.3333 32.4123 81.3333 27.6283C81.3333 22.8443 85.216 18.9617 90 18.9617" fill="black"/>
</g>
<defs>
<clipPath id="clip0_12_15">
<rect width="104" height="104" fill="white" transform="translate(64 1)"/>
</clipPath>
</defs>
</svg>
