<?xml version="1.0" encoding="UTF-8"?><svg id="Layer_2" xmlns="http://www.w3.org/2000/svg" viewBox="0 0 23.17 23.16"><defs><style>.cls-1,.cls-2{fill:none;stroke:#000;stroke-linecap:round;stroke-linejoin:round;}.cls-2{stroke-dasharray:0 0 1.02 2.05;}</style></defs><g id="Layer_1-2"><g><g><line class="cls-1" x1="6.28" y1="16.88" x2="6.28" y2="17.38"/><path class="cls-2" d="m6.28,19.43v2.22c0,.56.45,1.01,1.01,1.01h14.36c.56,0,1.01-.45,1.01-1.01V7.29c0-.56-.45-1.01-1.01-1.01h-3.25"/><line class="cls-1" x1="17.38" y1="6.28" x2="16.88" y2="6.28"/></g><path class="cls-1" d="m15.87.5H1.51C.95.5.5.95.5,1.5v14.37c0,.56.45,1.01,1.01,1.01h14.36c.56,0,1.01-.45,1.01-1.01V1.5c0-.55-.45-1-1.01-1Z"/></g></g></svg>