<?xml version="1.0" encoding="UTF-8"?>
<svg width="222px" height="107px" viewBox="0 0 222 107" version="1.1" xmlns="http://www.w3.org/2000/svg" xmlns:xlink="http://www.w3.org/1999/xlink">
    <title>Group@2x</title>
    <g id="Design" stroke="none" stroke-width="1" fill="none" fill-rule="evenodd">
        <g id="Artboard" transform="translate(-888.000000, -179.000000)" fill-rule="nonzero">
            <g id="Group" transform="translate(888.977376, 179.000000)">
                <path d="M0,105 L0,106 L7,106 L7,105 L0,105 Z M12,105 L12,106 L19,106 L19,105 L12,105 Z M24,105 L24,106 L31,106 L31,105 L24,105 Z M36,105 L36,106 L43,106 L43,105 L36,105 Z M48,105 L48,106 L55,106 L55,105 L48,105 Z M60,105 L60,106 L67,106 L67,105 L60,105 Z M72,105 L72,106 L79,106 L79,105 L72,105 Z M84,105 L84,106 L91,106 L91,105 L84,105 Z M96,105 L96,106 L103,106 L103,105 L96,105 Z M108,105 L108,106 L115,106 L115,105 L108,105 Z M120,105 L120,106 L127,106 L127,105 L120,105 Z M132,105 L132,106 L139,106 L139,105 L132,105 Z M144,105 L144,106 L151,106 L151,105 L144,105 Z M156,105 L156,106 L163,106 L163,105 L156,105 Z M168,105 L168,106 L175,106 L175,105 L168,105 Z M180,105 L180,106 L187,106 L187,105 L180,105 Z M192,105 L192,106 L199,106 L199,105 L192,105 Z M204,105 L204,106 L211,106 L211,105 L204,105 Z" id="Line" fill="#000000" opacity="0.246593657"></path>
                <path d="M0,57 L0,58 L7,58 L7,57 L0,57 Z M12,57 L12,58 L19,58 L19,57 L12,57 Z M24,57 L24,58 L31,58 L31,57 L24,57 Z M36,57 L36,58 L43,58 L43,57 L36,57 Z M48,57 L48,58 L55,58 L55,57 L48,57 Z M60,57 L60,58 L67,58 L67,57 L60,57 Z M72,57 L72,58 L79,58 L79,57 L72,57 Z M84,57 L84,58 L91,58 L91,57 L84,57 Z M96,57 L96,58 L103,58 L103,57 L96,57 Z M108,57 L108,58 L115,58 L115,57 L108,57 Z M120,57 L120,58 L127,58 L127,57 L120,57 Z M132,57 L132,58 L139,58 L139,57 L132,57 Z M144,57 L144,58 L151,58 L151,57 L144,57 Z M156,57 L156,58 L163,58 L163,57 L156,57 Z M168,57 L168,58 L175,58 L175,57 L168,57 Z M180,57 L180,58 L187,58 L187,57 L180,57 Z M192,57 L192,58 L199,58 L199,57 L192,57 Z M204,57 L204,58 L211,58 L211,57 L204,57 Z" id="Line" fill="#000000" opacity="0.246593657"></path>
                <path d="M0,27 L0,28 L7,28 L7,27 L0,27 Z M12,27 L12,28 L19,28 L19,27 L12,27 Z M24,27 L24,28 L31,28 L31,27 L24,27 Z M36,27 L36,28 L43,28 L43,27 L36,27 Z M48,27 L48,28 L55,28 L55,27 L48,27 Z M60,27 L60,28 L67,28 L67,27 L60,27 Z M72,27 L72,28 L79,28 L79,27 L72,27 Z M84,27 L84,28 L91,28 L91,27 L84,27 Z M96,27 L96,28 L103,28 L103,27 L96,27 Z M108,27 L108,28 L115,28 L115,27 L108,27 Z M120,27 L120,28 L127,28 L127,27 L120,27 Z M132,27 L132,28 L139,28 L139,27 L132,27 Z M144,27 L144,28 L151,28 L151,27 L144,27 Z M156,27 L156,28 L163,28 L163,27 L156,27 Z M168,27 L168,28 L175,28 L175,27 L168,27 Z M180,27 L180,28 L187,28 L187,27 L180,27 Z M192,27 L192,28 L199,28 L199,27 L192,27 Z M204,27 L204,28 L211,28 L211,27 L204,27 Z" id="Line" fill="#000000" opacity="0.246593657"></path>
                <path d="M0,0 L0,1 L7,1 L7,0 L0,0 Z M12,0 L12,1 L19,1 L19,0 L12,0 Z M24,0 L24,1 L31,1 L31,0 L24,0 Z M36,0 L36,1 L43,1 L43,0 L36,0 Z M48,0 L48,1 L55,1 L55,0 L48,0 Z M60,0 L60,1 L67,1 L67,0 L60,0 Z M72,0 L72,1 L79,1 L79,0 L72,0 Z M84,0 L84,1 L91,1 L91,0 L84,0 Z M96,0 L96,1 L103,1 L103,0 L96,0 Z M108,0 L108,1 L115,1 L115,0 L108,0 Z M120,0 L120,1 L127,1 L127,0 L120,0 Z M132,0 L132,1 L139,1 L139,0 L132,0 Z M144,0 L144,1 L151,1 L151,0 L144,0 Z M156,0 L156,1 L163,1 L163,0 L156,0 Z M168,0 L168,1 L175,1 L175,0 L168,0 Z M180,0 L180,1 L187,1 L187,0 L180,0 Z M192,0 L192,1 L199,1 L199,0 L192,0 Z M204,0 L204,1 L211,1 L211,0 L204,0 Z" id="Line" fill="#000000" opacity="0.246593657"></path>
                <path d="M84.0341244,105.2835 C86.2487911,105.2835 88.6144578,105.044417 91.1311244,104.56625 C93.6477911,104.088083 95.7114578,103.396 97.3221244,102.49 L97.3221244,102.49 L64.6306244,1.018 C62.8186244,0.665666667 60.6165411,0.414 58.0243744,0.263 C55.4322078,0.112 53.2049578,0.0365 51.3426244,0.0365 C49.4299578,0.0365 47.1901244,0.0994166667 44.6231244,0.22525 C42.0561244,0.351083333 39.8414578,0.565 37.9791244,0.867 L37.9791244,0.867 L4.53262443,102.2635 L5.36312443,103.4715 C6.72212443,103.9245 8.47120777,104.289417 10.6103744,104.56625 C12.7495411,104.843083 14.7251244,104.9815 16.5371244,104.9815 C18.2987911,104.9815 20.0101244,104.931167 21.6711244,104.8305 C23.3321244,104.729833 24.8672911,104.503333 26.2766244,104.151 L26.2766244,104.151 L32.9216244,81.822 L32.9814867,81.8222602 C33.1104016,81.8248282 33.2421414,81.8276531 33.3767061,81.8307347 L33.7888744,81.84075 C34.7703744,81.8659167 35.7644578,81.8910833 36.7711244,81.91625 C37.7777911,81.9414167 38.6334578,81.954 39.3381244,81.954 L39.3381244,81.954 L60.7046244,81.954 C61.3589578,81.954 62.1894578,81.9414167 63.1961244,81.91625 L63.1961244,81.91625 L66.2161244,81.84075 C66.4677911,81.8344583 66.7100203,81.8289531 66.9428119,81.8242344 L67.1336244,81.821 L70.2931244,92.826 C71.65548,97.5942444 73.3235546,100.845652 75.2973483,102.580222 L75.5026244,102.75425 C77.5662911,104.440417 80.4101244,105.2835 84.0341244,105.2835 Z M38.3036244,63.743 L42.4336244,49.8665 C42.9369578,48.1216111 43.4794392,46.2313148 44.0610689,44.1956111 L44.5046314,42.6415694 C44.6549323,42.1144676 44.80768,41.5782778 44.9628744,41.033 C45.8940411,37.7613333 46.7748744,34.4645 47.6053744,31.1425 C48.4358744,27.8205 49.1027911,24.8005 49.6061244,22.0825 L49.6061244,22.0825 L50.5121244,22.0825 C51.7201244,26.9145 53.0917078,32.1491667 54.6268744,37.7865 C56.1620411,43.4238333 57.5336244,48.3565 58.7416244,52.5845 L58.7416244,52.5845 L61.9406244,63.731 L61.9372775,63.7307653 L61.5351244,63.72075 C60.5787911,63.6955833 59.6224578,63.6704167 58.6661244,63.64525 C57.7097911,63.6200833 56.8792911,63.6075 56.1746244,63.6075 L56.1746244,63.6075 L44.6231244,63.6075 C43.9184578,63.6075 43.0879578,63.6200833 42.1316244,63.64525 C41.1752911,63.6704167 40.2189578,63.6955833 39.2626244,63.72075 C39.0235411,63.7270417 38.7938953,63.7325469 38.5736869,63.7372656 L38.3036244,63.743 Z M159.807682,106.1895 C164.287349,106.1895 168.213349,105.447083 171.585682,103.96225 C174.958016,102.477417 177.915099,100.6025 180.456932,98.3375 C180.919084,97.9256818 181.371668,97.5130317 181.814685,97.0995496 L181.930624,96.991 L182.161625,97.3185995 C183.372421,98.993581 184.868439,100.484007 186.64968,101.789877 L187.100932,102.1125 C189.844099,104.025167 193.354849,105.057 197.633182,105.208 C199.092849,104.100667 200.514766,102.389333 201.898932,100.074 C203.283099,97.7586667 204.201682,95.6195 204.654682,93.6565 C203.144682,92.5491667 202.062516,91.1398333 201.408182,89.4285 C200.753849,87.7171667 200.426682,85.7038333 200.426682,83.3885 L200.426682,83.3885 L200.426682,52.66 C200.426682,46.3683333 199.143182,41.3475833 196.576182,37.59775 C194.009182,33.8479167 190.699766,31.1425 186.647932,29.4815 C182.596099,27.8205 178.330349,26.99 173.850682,26.99 C170.579016,26.99 166.929849,27.2668333 162.903182,27.8205 C158.876516,28.3741667 154.837266,29.1543333 150.785432,30.161 C146.733599,31.1676667 143.046682,32.3505 139.724682,33.7095 C139.976349,36.4778333 140.567766,39.3216667 141.498932,42.241 C142.430099,45.1603333 143.701016,47.526 145.311682,49.338 C149.237682,48.13 153.125932,47.0100833 156.976432,45.97825 C160.826932,44.9464167 164.413182,44.4305 167.735182,44.4305 C171.208182,44.4305 173.787766,45.2735833 175.473932,46.95975 C177.160099,48.6459167 178.003182,51.1751667 178.003182,54.5475 L178.003182,54.5475 L178.002624,57.673 L177.712798,57.6510414 C177.201721,57.6164931 176.6829,57.5870079 176.156336,57.5625858 L175.360682,57.52975 C171.887682,57.4039167 168.993516,57.341 166.678182,57.341 C161.443516,57.341 156.561182,58.2595833 152.031182,60.09675 C147.501182,61.9339167 143.852016,64.77775 141.083682,68.62825 C138.315349,72.47875 136.931182,77.3988333 136.931182,83.3885 C136.931182,87.0125 137.749099,90.5735833 139.384932,94.07175 C141.020766,97.5699167 143.537432,100.464083 146.934932,102.75425 C150.332432,105.044417 154.623349,106.1895 159.807682,106.1895 Z M166.225182,89.504 C163.909849,89.504 162.097849,88.78675 160.789182,87.35225 C159.480516,85.91775 158.826182,84.0931667 158.826182,81.8785 C158.826182,78.9088333 159.631516,76.4928333 161.242182,74.6305 C162.852849,72.7681667 165.419849,71.837 168.943182,71.837 C171.107516,71.837 173.724849,71.8873333 176.795182,71.988 C177.014492,71.9951905 177.231747,72.0034082 177.446948,72.0126531 L178.002624,72.04 L178.002624,84.456 L177.823638,84.6127703 C177.296137,85.0645334 176.753793,85.489655 176.196606,85.8881352 L175.775932,86.182 C172.529432,88.3966667 169.345849,89.504 166.225182,89.504 Z" id="Aa" fill="#202020"></path>
                <polygon id="Line-2" fill="#000000" points="220.022624 57 220.022624 106 219.022624 106 219.022624 57"></polygon>
                <polygon id="Line-3" fill="#000000" points="220.022624 57 220.022624 58 216.022624 58 216.022624 57"></polygon>
                <polygon id="Line-3" fill="#000000" points="220.022624 105 220.022624 106 216.022624 106 216.022624 105"></polygon>
                <path d="M172.20866,17 L172.20866,14.5083008 L174.348796,10.5751953 L173.206218,10.5751953 L171.68571,13.5063477 L170.165203,10.5751953 L169.022624,10.5751953 L171.153972,14.543457 L171.153972,17 L172.20866,17 Z M183.704753,13.3481445 L183.704753,12.5615234 L179.47282,12.5615234 L179.47282,13.3481445 L183.704753,13.3481445 Z M183.704753,15.1015625 L183.704753,14.3193359 L179.47282,14.3193359 L179.47282,15.1015625 L183.704753,15.1015625 Z M192.2653,17 L192.2653,10.5751953 L191.403972,10.5751953 L189.514324,12.0605469 L190.032878,12.715332 C190.592449,12.2612305 190.921306,11.9916992 191.019451,11.9067383 C191.117595,11.8217773 191.200359,11.7441406 191.267742,11.6738281 C191.244304,11.9638672 191.232585,12.3564453 191.232585,12.8515625 L191.232585,12.8515625 L191.232585,17 L192.2653,17 Z M196.541179,17.0878906 C197.27946,17.0878906 197.828044,16.8168945 198.186931,16.2749023 C198.545818,15.7329102 198.725261,14.9038086 198.725261,13.7875977 C198.725261,12.7036133 198.540691,11.8803711 198.17155,11.3178711 C197.80241,10.7553711 197.258953,10.4741211 196.541179,10.4741211 C195.805828,10.4741211 195.258708,10.7429199 194.899822,11.2805176 C194.540935,11.8181152 194.361492,12.6538086 194.361492,13.7875977 C194.361492,14.8686523 194.546062,15.6889648 194.915203,16.2485352 C195.284343,16.8081055 195.826335,17.0878906 196.541179,17.0878906 Z M196.541179,16.2265625 C196.145671,16.2265625 195.85783,16.0390625 195.677654,15.6640625 C195.497478,15.2890625 195.40739,14.6635742 195.40739,13.7875977 C195.40739,12.9116211 195.497478,12.284668 195.677654,11.9067383 C195.85783,11.5288086 196.145671,11.3398438 196.541179,11.3398438 C196.936687,11.3398438 197.225994,11.5324707 197.409099,11.9177246 C197.592205,12.3029785 197.683757,12.9262695 197.683757,13.7875977 C197.683757,14.6518555 197.592205,15.2744141 197.409099,15.6552734 C197.225994,16.0361328 196.936687,16.2265625 196.541179,16.2265625 Z M201.678386,17.0878906 C202.416667,17.0878906 202.965251,16.8168945 203.324138,16.2749023 C203.683025,15.7329102 203.862468,14.9038086 203.862468,13.7875977 C203.862468,12.7036133 203.677898,11.8803711 203.308757,11.3178711 C202.939617,10.7553711 202.39616,10.4741211 201.678386,10.4741211 C200.943035,10.4741211 200.395915,10.7429199 200.037029,11.2805176 C199.678142,11.8181152 199.498699,12.6538086 199.498699,13.7875977 C199.498699,14.8686523 199.683269,15.6889648 200.05241,16.2485352 C200.42155,16.8081055 200.963542,17.0878906 201.678386,17.0878906 Z M201.678386,16.2265625 C201.282878,16.2265625 200.995037,16.0390625 200.814861,15.6640625 C200.634685,15.2890625 200.544597,14.6635742 200.544597,13.7875977 C200.544597,12.9116211 200.634685,12.284668 200.814861,11.9067383 C200.995037,11.5288086 201.282878,11.3398438 201.678386,11.3398438 C202.073894,11.3398438 202.363201,11.5324707 202.546306,11.9177246 C202.729412,12.3029785 202.820964,12.9262695 202.820964,13.7875977 C202.820964,14.6518555 202.729412,15.2744141 202.546306,15.6552734 C202.363201,16.0361328 202.073894,16.2265625 201.678386,16.2265625 Z M206.020183,14.5170898 C206.491863,14.5170898 206.848552,14.3479004 207.090251,14.0095215 C207.331951,13.6711426 207.4528,13.1650391 207.4528,12.4912109 C207.4528,11.8466797 207.329021,11.3508301 207.081462,11.0036621 C206.833904,10.6564941 206.480144,10.4829102 206.020183,10.4829102 C205.085613,10.4829102 204.618328,11.1523438 204.618328,12.4912109 C204.618328,13.1416016 204.740642,13.6418457 204.985271,13.9919434 C205.2299,14.342041 205.574871,14.5170898 206.020183,14.5170898 Z M206.767253,17 L210.331218,10.5751953 L209.478679,10.5751953 L205.914714,17 L206.767253,17 Z M206.020183,13.7963867 C205.826824,13.7963867 205.687663,13.6894531 205.602703,13.4755859 C205.517742,13.2617188 205.475261,12.9365234 205.475261,12.5 C205.475261,12.0634766 205.517742,11.7382812 205.602703,11.5244141 C205.687663,11.3105469 205.826824,11.2036133 206.020183,11.2036133 C206.406902,11.2036133 206.600261,11.6357422 206.600261,12.5 C206.600261,13.3642578 206.406902,13.7963867 206.020183,13.7963867 Z M210.208171,17.0878906 C210.673992,17.0878906 211.028484,16.9194336 211.271648,16.5825195 C211.514812,16.2456055 211.636394,15.7402344 211.636394,15.0664062 C211.636394,14.4189453 211.51115,13.9223633 211.260662,13.5766602 C211.010173,13.230957 210.659343,13.0581055 210.208171,13.0581055 C209.270671,13.0581055 208.801921,13.7275391 208.801921,15.0664062 C208.801921,15.7197266 208.924968,16.2199707 209.171062,16.5671387 C209.417156,16.9143066 209.762859,17.0878906 210.208171,17.0878906 Z M210.208171,16.371582 C210.014812,16.371582 209.874919,16.2631836 209.788494,16.0463867 C209.702068,15.8295898 209.658855,15.5029297 209.658855,15.0664062 C209.658855,14.6298828 209.702068,14.3061523 209.788494,14.0952148 C209.874919,13.8842773 210.014812,13.7788086 210.208171,13.7788086 C210.59196,13.7788086 210.783855,14.2080078 210.783855,15.0664062 C210.783855,15.9365234 210.59196,16.371582 210.208171,16.371582 Z" id="Y=100%" fill="#2C2C2C"></path>
                <path d="M101.165203,85 L102.786785,82.3720703 L104.395183,85 L105.603679,85 L103.44157,81.6865234 L105.449871,78.5751953 L104.316081,78.5751953 L102.83073,81.0053711 L101.345378,78.5751953 L100.176433,78.5751953 L102.17155,81.6689453 L100.040203,85 L101.165203,85 Z M114.977214,81.3481445 L114.977214,80.5615234 L110.745281,80.5615234 L110.745281,81.3481445 L114.977214,81.3481445 Z M114.977214,83.1015625 L114.977214,82.3193359 L110.745281,82.3193359 L110.745281,83.1015625 L114.977214,83.1015625 Z M122.289714,85.0878906 C123.095378,85.0878906 123.716472,84.920166 124.152996,84.5847168 C124.589519,84.2492676 124.807781,83.7724609 124.807781,83.1542969 C124.807781,82.7294922 124.678874,82.388916 124.421062,82.1325684 C124.163249,81.8762207 123.776531,81.7158203 123.260906,81.6513672 L123.260906,81.6513672 L123.260906,81.6162109 C123.69157,81.5224609 124.025554,81.3400879 124.262859,81.0690918 C124.500163,80.7980957 124.618816,80.4589844 124.618816,80.0517578 C124.618816,79.5625 124.437175,79.1787109 124.073894,78.9003906 C123.710613,78.6220703 123.205242,78.4829102 122.557781,78.4829102 C121.778484,78.4829102 121.094402,78.699707 120.505535,79.1333008 L120.505535,79.1333008 L121.010906,79.8540039 C121.318523,79.6547852 121.585124,79.520752 121.81071,79.4519043 C122.036296,79.3830566 122.270671,79.3486328 122.513835,79.3486328 C122.862468,79.3486328 123.12614,79.4233398 123.304851,79.5727539 C123.483562,79.722168 123.572917,79.9345703 123.572917,80.2099609 C123.572917,80.9189453 123.060222,81.2734375 122.034831,81.2734375 L122.034831,81.2734375 L121.467937,81.2734375 L121.467937,82.112793 L122.026042,82.112793 C122.60905,82.112793 123.036785,82.1933594 123.309246,82.3544922 C123.581706,82.515625 123.717937,82.7675781 123.717937,83.1103516 C123.717937,83.4970703 123.59489,83.7827148 123.348796,83.9672852 C123.102703,84.1518555 122.730632,84.2441406 122.232585,84.2441406 C121.951335,84.2441406 121.658367,84.2075195 121.353679,84.1342773 C121.048992,84.0610352 120.760417,83.9570312 120.487956,83.8222656 L120.487956,83.8222656 L120.487956,84.7407227 C120.977214,84.972168 121.5778,85.0878906 122.289714,85.0878906 Z M128.433269,85 L128.433269,82.5083008 L130.573406,78.5751953 L129.430828,78.5751953 L127.91032,81.5063477 L126.389812,78.5751953 L125.247234,78.5751953 L127.378581,82.543457 L127.378581,85 L128.433269,85 Z" id="X=3Y" fill="#2C2C2C"></path>
            </g>
        </g>
    </g>
</svg>