<svg width="34" height="24" viewBox="0 0 34 24" fill="none" xmlns="http://www.w3.org/2000/svg">
<path d="M29 3H15C13.8954 3 13 3.89543 13 5V19C13 20.1046 13.8954 21 15 21H29C30.1046 21 31 20.1046 31 19V5C31 3.89543 30.1046 3 29 3Z" stroke="black" stroke-width="2" stroke-linecap="round" stroke-linejoin="round"/>
<path d="M18.5 10C19.3284 10 20 9.32843 20 8.5C20 7.67157 19.3284 7 18.5 7C17.6716 7 17 7.67157 17 8.5C17 9.32843 17.6716 10 18.5 10Z" stroke="black" stroke-width="2" stroke-linecap="round" stroke-linejoin="round"/>
<path d="M31 15L26 10L15 21" stroke="black" stroke-width="2" stroke-linecap="round" stroke-linejoin="round"/>
<path d="M7 6L4 3L1 6" stroke="black" stroke-width="2" stroke-linecap="round" stroke-linejoin="round"/>
<path d="M1 18L4 21L7 18" stroke="black" stroke-width="2" stroke-linecap="round" stroke-linejoin="round"/>
<path d="M4 16V8" stroke="black" stroke-width="2" stroke-linecap="round" stroke-linejoin="round"/>
</svg>
