<svg id="Layer_1" data-name="Layer 1" xmlns="http://www.w3.org/2000/svg" width="24" height="24" viewBox="0 0 24 24">
  <defs>
    <style>
      .cls-1 {
        fill-rule: evenodd;
      }
    </style>
  </defs>
  <path id="Icon-Color" class="cls-1" d="M9.92,23.93h0l-.07,0h0l0,0,0,0,.07.06a.47.47,0,0,1-.1-.1l0,0,0,0s0,0,0-.05l0,0s0,0,0,0l-2.3-6.92L.41,14.37A.64.64,0,0,1,0,13.86a.62.62,0,0,1,.3-.58L23.1.08h0l.05,0-.07,0,.1,0,.08,0h.3l.06,0,0,0,.05,0h0a.05.05,0,0,1,0,0l0,0h0l0,0-.05,0,.08.09,0,0a.08.08,0,0,1,0,0l0,.06v0a.14.14,0,0,1,0,.07v0s0,0,0,.06V.71L20.39,21.1a.6.6,0,0,1-.83.45l-5.47-2.34-3.41,4.55h0l0,.05,0-.06-.07.08a.62.62,0,0,1-.37.16h0a.5.5,0,0,1-.27-.07ZM18.7,6.15,8.49,16.36l1.56,4.7.76-3.78v-.07l0,.07a.5.5,0,0,1,0-.13l0,0a.21.21,0,0,1,0-.06h0ZM11.84,18.24l-.53,2.68L13,18.72ZM22.35,3.1l-10,14,7,3Zm-2.61.31L2.05,13.65l5.59,1.86Z" transform="translate(0 0)"/>
</svg>
