<?xml version="1.0" encoding="UTF-8"?>
<svg width="38px" height="19px" viewBox="0 0 38 19" version="1.1" xmlns="http://www.w3.org/2000/svg" xmlns:xlink="http://www.w3.org/1999/xlink">
    <title>Rectangle 2@2x</title>
    <g id="Design" stroke="none" stroke-width="1" fill="none" fill-rule="evenodd">
        <g id="1.0-UI-Components" transform="translate(-298.000000, -296.000000)" stroke="#000000" stroke-width="2">
            <path d="M307.5,297 L326.5,297 C331.19442,297 335,300.80558 335,305.5 C335,310.19442 331.19442,314 326.5,314 L307.5,314 C302.80558,314 299,310.19442 299,305.5 C299,300.80558 302.80558,297 307.5,297 Z M308.5,309 C310.432997,309 312,307.432997 312,305.5 C312,303.567003 310.432997,302 308.5,302 C306.567003,302 305,303.567003 305,305.5 C305,307.432997 306.567003,309 308.5,309 Z" id="Rectangle-2"></path>
        </g>
    </g>
</svg>