<?xml version="1.0" encoding="UTF-8"?>
<svg width="37px" height="18px" viewBox="0 0 37 18" version="1.1" xmlns="http://www.w3.org/2000/svg" xmlns:xlink="http://www.w3.org/1999/xlink">
    <title>Rectangle 3@2x</title>
    <g id="Design" stroke="none" stroke-width="1" fill="none" fill-rule="evenodd">
        <g id="1.0-UI-Components" transform="translate(-299.000000, -365.000000)" fill="#000000" fill-rule="nonzero">
            <path d="M332,365 L303,365 C300.790861,365 299,366.896206 299,369.235294 L299,378.764706 C299,381.103794 300.790861,383 303,383 L332,383 C334.209139,383 336,381.103794 336,378.764706 L336,369.235294 C336,366.896206 334.209139,365 332,365 Z M303,367.117647 L332,367.117647 C333.104569,367.117647 334,368.06575 334,369.235294 L334,378.764706 C334,379.93425 333.104569,380.882353 332,380.882353 L303,380.882353 C301.895431,380.882353 301,379.93425 301,378.764706 L301,369.235294 C301,368.06575 301.895431,367.117647 303,367.117647 Z M306,373.5 L318,373.5 L318,375.5 L306,375.5 L306,373.5 Z M323.495522,372.620736 C323.499434,372.30245 323.668977,372.017468 323.926525,371.896269 C324.184073,371.77507 324.480043,371.840987 324.678925,372.06384 L326.962197,374.689206 L329.273315,372.079752 C329.444872,371.854212 329.712556,371.757575 329.966349,371.829558 C330.220142,371.901542 330.417229,372.130002 330.476609,372.421043 C330.535988,372.712084 330.447643,373.016607 330.247882,373.209454 L327.463403,376.391716 C327.332695,376.542326 327.15477,376.627042 326.969159,376.627042 C326.783547,376.627042 326.605622,376.542326 326.474914,376.391716 L323.690435,373.209454 C323.55741,373.052183 323.486913,372.839254 323.495522,372.620736 Z" id="Rectangle-3"></path>
        </g>
    </g>
</svg>