<?xml version="1.0" encoding="UTF-8"?>
<svg width="38px" height="19px" viewBox="0 0 38 19" version="1.1" xmlns="http://www.w3.org/2000/svg" xmlns:xlink="http://www.w3.org/1999/xlink">
    <title>Group 9@2x</title>
    <g id="Design" stroke="none" stroke-width="1" fill="none" fill-rule="evenodd">
        <g id="1.0-UI-Components" transform="translate(-343.000000, -320.000000)">
            <g id="Group-9" transform="translate(343.000000, 320.000000)">
                <rect id="Rectangle" stroke="#000000" stroke-width="2" x="1" y="1" width="36" height="17" rx="4"></rect>
                <path d="M27.8146263,12.9992947 C27.4963404,12.9953825 27.2113584,12.8258396 27.0901591,12.5682911 C26.9689598,12.3107427 27.0348771,12.0147729 27.2577306,11.8158913 L29.8830961,9.53261888 L27.2736419,7.22150167 C27.0481019,7.04994385 26.9514652,6.78226031 27.0234488,6.52846724 C27.0954324,6.27467417 27.3238926,6.07758707 27.6149336,6.01820746 C27.9059747,5.95882785 28.2104973,6.04717321 28.4033446,6.24693417 L31.5856058,9.03141273 C31.7362164,9.16212075 31.8209327,9.34004605 31.8209327,9.52565768 C31.8209327,9.71126931 31.7362164,9.88919461 31.5856058,10.0199026 L28.4033446,12.8043812 C28.2460735,12.9374065 28.0331446,13.0079033 27.8146263,12.9992947 Z" id="Path" fill="#000000" fill-rule="nonzero"></path>
                <rect id="Rectangle" fill="#000000" x="18" y="2" width="2" height="15"></rect>
                <path d="M6.81462631,12.9992947 C6.49634038,12.9953825 6.21135837,12.8258396 6.09015911,12.5682911 C5.96895985,12.3107427 6.03487706,12.0147729 6.25773059,11.8158913 L8.8830961,9.53261888 L6.2736419,7.22150167 C6.04810191,7.04994385 5.95146519,6.78226031 6.02344881,6.52846724 C6.09543243,6.27467417 6.32389258,6.07758707 6.61493362,6.01820746 C6.90597465,5.95882785 7.21049727,6.04717321 7.40334463,6.24693417 L10.5856058,9.03141273 C10.7362164,9.16212075 10.8209327,9.34004605 10.8209327,9.52565768 C10.8209327,9.71126931 10.7362164,9.88919461 10.5856058,10.0199026 L7.40334463,12.8043812 C7.24607346,12.9374065 7.03314457,13.0079033 6.81462631,12.9992947 Z" id="Path" fill="#000000" fill-rule="nonzero" transform="translate(8.410466, 9.500000) rotate(-180.000000) translate(-8.410466, -9.500000) "></path>
            </g>
        </g>
    </g>
</svg>